<?xml version="1.0" encoding="UTF-8" standalone="no"?>
<svg
   xmlns:dc="http://purl.org/dc/elements/1.1/"
   xmlns:cc="http://creativecommons.org/ns#"
   xmlns:rdf="http://www.w3.org/1999/02/22-rdf-syntax-ns#"
   xmlns:svg="http://www.w3.org/2000/svg"
   xmlns="http://www.w3.org/2000/svg"
   viewBox="0 0 500 500"
   height="500"
   width="500"
   xml:space="preserve"
   id="svg2"
   version="1.1"><metadata
     id="metadata8"><rdf:RDF><cc:Work
         rdf:about=""><dc:format>image/svg+xml</dc:format><dc:type
           rdf:resource="http://purl.org/dc/dcmitype/StillImage" /></cc:Work></rdf:RDF></metadata><defs
     id="defs6"><clipPath
       id="clipPath14"
       clipPathUnits="userSpaceOnUse"><path
         id="path12"
         d="M 0,8.039989 H 375 V 383.03998 H 0 Z" /></clipPath><clipPath
       id="clipPath24"
       clipPathUnits="userSpaceOnUse"><path
         style="clip-rule:evenodd"
         id="path22"
         d="M 0,0 H 1562.5 V 1562.5 H 0 Z" /></clipPath><clipPath
       id="clipPath36"
       clipPathUnits="userSpaceOnUse"><path
         style="clip-rule:evenodd"
         id="path34"
         d="M 0,0 H 1562.5 V 1562.5 H 0 Z" /></clipPath><clipPath
       id="clipPath48"
       clipPathUnits="userSpaceOnUse"><path
         style="clip-rule:evenodd"
         id="path46"
         d="M 321.09192,156.25 H 1242.9669 V 1187.5 H 321.09192 Z" /></clipPath><clipPath
       id="clipPath62"
       clipPathUnits="userSpaceOnUse"><path
         style="clip-rule:evenodd"
         id="path60"
         d="m 590.01324,218.33488 h 465.62496 v 537.5 H 590.01324 Z" /></clipPath><clipPath
       id="clipPath74"
       clipPathUnits="userSpaceOnUse"><path
         id="path72"
         d="M 0,0 H 162 V 304 H 0 Z" /></clipPath><clipPath
       id="clipPath88"
       clipPathUnits="userSpaceOnUse"><path
         id="path86"
         d="M 0,0 H 162 V 265 H 0 Z" /></clipPath><clipPath
       id="clipPath102"
       clipPathUnits="userSpaceOnUse"><path
         id="path100"
         d="M 0,0 H 162 V 227 H 0 Z" /></clipPath><clipPath
       id="clipPath118"
       clipPathUnits="userSpaceOnUse"><path
         id="path116"
         d="M 0,0 H 160 V 188 H 0 Z" /></clipPath><clipPath
       id="clipPath134"
       clipPathUnits="userSpaceOnUse"><path
         id="path132"
         d="M 0,0 H 152 V 150 H 0 Z" /></clipPath><clipPath
       id="clipPath150"
       clipPathUnits="userSpaceOnUse"><path
         id="path148"
         d="M 0,0 H 129 V 111 H 0 Z" /></clipPath><clipPath
       id="clipPath166"
       clipPathUnits="userSpaceOnUse"><path
         id="path164"
         d="M 0,0 H 106 V 73 H 0 Z" /></clipPath><clipPath
       id="clipPath182"
       clipPathUnits="userSpaceOnUse"><path
         id="path180"
         d="M 0,0 H 75 V 34 H 0 Z" /></clipPath><clipPath
       id="clipPath206"
       clipPathUnits="userSpaceOnUse"><path
         id="path204"
         d="M 0,0 H 160 V 330 H 0 Z" /></clipPath><clipPath
       id="clipPath224"
       clipPathUnits="userSpaceOnUse"><path
         id="path222"
         d="M 0,0 H 160 V 292 H 0 Z" /></clipPath><clipPath
       id="clipPath240"
       clipPathUnits="userSpaceOnUse"><path
         id="path238"
         d="M 0,0 H 160 V 253 H 0 Z" /></clipPath><clipPath
       id="clipPath256"
       clipPathUnits="userSpaceOnUse"><path
         id="path254"
         d="M 0,0 H 160 V 215 H 0 Z" /></clipPath><clipPath
       id="clipPath272"
       clipPathUnits="userSpaceOnUse"><path
         id="path270"
         d="M 0,0 H 152 V 176 H 0 Z" /></clipPath><clipPath
       id="clipPath288"
       clipPathUnits="userSpaceOnUse"><path
         id="path286"
         d="M 0,0 H 134 V 138 H 0 Z" /></clipPath><clipPath
       id="clipPath304"
       clipPathUnits="userSpaceOnUse"><path
         id="path302"
         d="M 0,0 H 106 V 99 H 0 Z" /></clipPath><clipPath
       id="clipPath320"
       clipPathUnits="userSpaceOnUse"><path
         id="path318"
         d="M 0,0 H 81 V 61 H 0 Z" /></clipPath><clipPath
       id="clipPath336"
       clipPathUnits="userSpaceOnUse"><path
         id="path334"
         d="M 0,0 H 157 V 166 H 0 Z" /></clipPath><clipPath
       id="clipPath370"
       clipPathUnits="userSpaceOnUse"><path
         id="path368"
         d="M 0,0 H 39 V 46 H 0 Z" /></clipPath><clipPath
       id="clipPath386"
       clipPathUnits="userSpaceOnUse"><path
         id="path384"
         d="M 0,0 H 19 V 35 H 0 Z" /></clipPath><clipPath
       id="clipPath402"
       clipPathUnits="userSpaceOnUse"><path
         id="path400"
         d="M 0,0 H 13 V 43 H 0 Z" /></clipPath><clipPath
       id="clipPath418"
       clipPathUnits="userSpaceOnUse"><path
         id="path416"
         d="M 0,0 H 18 V 24 H 0 Z" /></clipPath><clipPath
       id="clipPath434"
       clipPathUnits="userSpaceOnUse"><path
         id="path432"
         d="M 0,0 H 33 V 25 H 0 Z" /></clipPath><clipPath
       id="clipPath488"
       clipPathUnits="userSpaceOnUse"><path
         id="path486"
         d="M 0,0 H 130 V 31 H 0 Z" /></clipPath><clipPath
       id="clipPath504"
       clipPathUnits="userSpaceOnUse"><path
         id="path502"
         d="M 0,0 H 130 V 23 H 0 Z" /></clipPath><clipPath
       id="clipPath520"
       clipPathUnits="userSpaceOnUse"><path
         id="path518"
         d="M 0,0 H 79 V 25 H 0 Z" /></clipPath><clipPath
       id="clipPath542"
       clipPathUnits="userSpaceOnUse"><path
         id="path540"
         d="M 0,0 H 130 V 31 H 0 Z" /></clipPath><clipPath
       id="clipPath558"
       clipPathUnits="userSpaceOnUse"><path
         id="path556"
         d="M 0,0 H 130 V 24 H 0 Z" /></clipPath><clipPath
       id="clipPath574"
       clipPathUnits="userSpaceOnUse"><path
         id="path572"
         d="M 0,0 H 79 V 23 H 0 Z" /></clipPath><clipPath
       id="clipPath596"
       clipPathUnits="userSpaceOnUse"><path
         id="path594"
         d="M 0,0 H 130 V 31 H 0 Z" /></clipPath><clipPath
       id="clipPath612"
       clipPathUnits="userSpaceOnUse"><path
         id="path610"
         d="M 0,0 H 130 V 24 H 0 Z" /></clipPath><clipPath
       id="clipPath628"
       clipPathUnits="userSpaceOnUse"><path
         id="path626"
         d="M 0,0 H 78 V 24 H 0 Z" /></clipPath><clipPath
       id="clipPath648"
       clipPathUnits="userSpaceOnUse"><path
         id="path646"
         d="M 0,0 H 74 V 38 H 0 Z" /></clipPath><clipPath
       id="clipPath664"
       clipPathUnits="userSpaceOnUse"><path
         id="path662"
         d="M 0,0 H 73 V 37 H 0 Z" /></clipPath><clipPath
       id="clipPath718"
       clipPathUnits="userSpaceOnUse"><path
         style="clip-rule:evenodd"
         id="path716"
         d="M 0,0 H 1562.5 V 1562.5 H 0 Z" /></clipPath><clipPath
       id="clipPath726"
       clipPathUnits="userSpaceOnUse"><path
         id="path724"
         d="M 0,0 H 927 V 192 H 0 Z" /></clipPath></defs><g
     clip-path="url(#clipPath14)"
     transform="matrix(1.3333333,0,0,-1.3333333,0,510.71997)"
     id="g10"><g
       transform="matrix(0.23999999,0,0,-0.23999999,0,383.03998)"
       id="g16"><g
         id="g18"><g
           clip-path="url(#clipPath24)"
           id="g20"><g
             transform="scale(3.125)"
             id="g26"><path
               id="path28"
               style="fill:#ffffff;fill-opacity:1;fill-rule:nonzero;stroke:none"
               d="M 0,0 H 500 V 500 H 0 Z" /></g></g></g><g
         id="g30"><g
           clip-path="url(#clipPath36)"
           id="g32"><g
             transform="scale(3.125)"
             id="g38"><path
               id="path40"
               style="fill:#ffd459;fill-opacity:1;fill-rule:nonzero;stroke:none"
               d="M 0,0 H 500 V 500 H 0 Z" /></g></g></g><g
         id="g42"><g
           clip-path="url(#clipPath48)"
           id="g44"><g
             transform="matrix(2.128093,0,0,2.128093,321.81525,156.25)"
             id="g50"><path
               id="path52"
               style="fill:#2d50ab;fill-opacity:1;fill-rule:nonzero;stroke:none"
               d="m 381.103,484.08401 c -1.551,-3.60998 -2.819,-6.45599 -4.01502,-9.34899 -11.625,-28.129 -15.38501,-57.57401 -13.55801,-87.68802 2.34299,-38.60401 16.45199,-73.27201 37.64599,-105.15302 28.98099,-43.62201 37.693,-90.83 24.78699,-141.472 C 409.30301,75.080002 371.30899,27.857 304.828,9.4790001 279.496,2.4770002 252.19901,1.4110002 225.68201,0.23900032 199.761,-0.90699971 173.78601,1.9220004 149.296,12.062 110.362,28.177999 76.637009,50.257999 61.210007,92.031006 c -7.241001,19.609004 -13.479,39.604004 -19.605,59.598994 -3.629001,11.85401 -3.523998,23.719 2.305,35.30401 3.882,7.73199 3.681,15.57899 -1.681999,23.12699 -11.744999,16.525 -23.191,33.266 -34.7449987,49.92899 -8.6639995,12.50299 -6.2480001,22.77301 7.2289997,29.79401 3.439,1.794 7.153,3.39999 10.925999,4.14001 7.376999,1.44699 8.913002,6.586 6.212999,11.84601 -6.045999,11.80099 -2.225,20.297 5.019999,25.504 0.354,7.65701 -1.387001,14.41101 1.226002,17.85699 6.724998,8.87201 7.350998,17.306 5.013,27.801 -5.076,22.81201 5.896,39.565 28.934998,43.57299 15.346,2.667 31.126994,2.72699 46.682004,4.23099 20.22199,1.96201 27.77099,10.59201 28.701,30.73902 0.435,9.45901 2.352,18.84298 3.647,28.61001 77.04898,-10e-4 153.056,-10e-4 230.02799,-10e-4 z" /><path
               id="path54"
               style="fill:#ffffff;fill-opacity:1;fill-rule:nonzero;stroke:none"
               d="m 402.035,156.78101 c -3e-5,2.28506 -0.066,4.56875 -0.19802,6.85105 -0.13199,2.28231 -0.32984,4.56051 -0.59351,6.83458 -0.2637,2.27407 -0.59293,4.54125 -0.98764,6.80156 -0.39478,2.26035 -0.85458,4.5111 -1.3794,6.75226 -0.52484,2.24117 -1.1141,4.47003 -1.76776,6.68662 -0.65371,2.2166 -1.37103,4.41823 -2.15194,6.6049 -0.78095,2.18668 -1.62458,4.35576 -2.53092,6.50723 -0.90631,2.15151 -1.8742,4.28283 -2.90372,6.39394 -1.02951,2.11113 -2.11938,4.19952 -3.26959,6.2652 -1.15024,2.06567 -2.3594,4.10614 -3.62756,6.1214 -1.26816,2.01524 -2.59378,4.00285 -3.97684,5.96283 -1.38305,1.95996 -2.82187,3.88992 -4.31647,5.78988 -1.49459,1.89998 -3.04321,3.76766 -4.64578,5.60305 -1.60257,1.83537 -3.25717,3.63626 -4.96383,5.40263 -1.70667,1.76637 -3.46335,3.49614 -5.27002,5.18927 -1.80664,1.69311 -3.66111,3.34756 -5.56339,4.96336 -1.90228,1.61579 -3.8501,3.19095 -5.84344,4.7255 -1.99332,1.53457 -4.02979,3.02667 -6.10935,4.47628 -2.07959,1.44962 -4.1998,2.85505 -6.36059,4.21625 -2.16083,1.36121 -4.35965,2.67658 -6.5965,3.94611 -2.23685,1.26953 -4.50903,2.49167 -6.81653,3.66638 -2.30749,1.17477 -4.64752,2.30078 -7.02008,3.37796 -2.37259,1.07715 -4.77484,2.10422 -7.20679,3.08121 -2.43194,0.97699 -4.89065,1.90271 -7.3761,2.77719 -2.48544,0.87445 -4.99465,1.69659 -7.52764,2.46643 -2.53299,0.76984 -5.08667,1.48642 -7.66105,2.14972 -2.5744,0.6633 -5.16641,1.27255 -7.776,1.82779 -2.60962,0.5552 -5.2337,1.05572 -7.87225,1.50152 -2.63852,0.4458 -5.28836,0.83634 -7.94946,1.17163 -2.66111,0.3353 -5.33029,0.61493 -8.00757,0.83893 -2.67729,0.22397 -5.35942,0.39203 -8.04642,0.50415 -2.68699,0.11209 -5.37561,0.16816 -8.06584,0.16819 -2.69023,-3e-5 -5.37885,-0.0561 -8.06586,-0.16819 -2.68699,-0.11212 -5.36912,-0.28018 -8.0464,-0.50415 -2.67729,-0.224 -5.3465,-0.50363 -8.00761,-0.83889 -2.66112,-0.3353 -5.31096,-0.72587 -7.9495,-1.17167 -2.63853,-0.4458 -5.26262,-0.94632 -7.87223,-1.50152 -2.60961,-0.55524 -5.2016,-1.16452 -7.77599,-1.82782 -2.5744,-0.6633 -5.1281,-1.37988 -7.66107,-2.14969 -2.53298,-0.76984 -5.04218,-1.59198 -7.52764,-2.46643 -2.48545,-0.87448 -4.94415,-1.8002 -7.3761,-2.77719 -2.43193,-0.97699 -4.83418,-2.00406 -7.20675,-3.08121 -2.37258,-1.07718 -4.7126,-2.20316 -7.02011,-3.37793 -2.30748,-1.17474 -4.57964,-2.39688 -6.8165,-3.66638 -2.23685,-1.26953 -4.43567,-2.5849 -6.59648,-3.94611 -2.16081,-1.3612 -4.28102,-2.76663 -6.3606,-4.21624 -2.07957,-1.44965 -4.11604,-2.94175 -6.10937,-4.47629 -1.99333,-1.53458 -3.94113,-3.10974 -5.84342,-4.72553 -1.90229,-1.6158 -3.75676,-3.27025 -5.5634,-4.96336 -1.80665,-1.69313 -3.56331,-3.42288 -5.26999,-5.18926 -1.70666,-1.76638 -3.36128,-3.56727 -4.96385,-5.40264 -1.60257,-1.83539 -3.15117,-3.70307 -4.64579,-5.60305 -1.494611,-1.89996 -2.933446,-3.82992 -4.316503,-5.7899 -1.383057,-1.95996 -2.708664,-3.94757 -3.97683,-5.96281 -1.268165,-2.01526 -2.477363,-4.05573 -3.627586,-6.1214 -1.15023,-2.06568 -2.240097,-4.15407 -3.2696,-6.2652 -1.029503,-2.11111 -1.997414,-4.24243 -2.903725,-6.39394 -0.906318,-2.15147 -1.749939,-4.32055 -2.530868,-6.50723 -0.780937,-2.18667 -1.498238,-4.3883 -2.151917,-6.60489 -0.653678,-2.2166 -1.242935,-4.44546 -1.767768,-6.68663 -0.524834,-2.24116 -0.984627,-4.49191 -1.379364,-6.75224 -0.394738,-2.26033 -0.723954,-4.52751 -0.987641,-6.80158 -0.263695,-2.27407 -0.46154,-4.55227 -0.593544,-6.83458 -0.131996,-2.2823 -0.197998,-4.56599 -0.197998,-6.85105 0,-2.28507 0.066,-4.56876 0.197998,-6.85109 0.132004,-2.28231 0.329849,-4.56049 0.593544,-6.83455 0.263687,-2.27407 0.592903,-4.54126 0.987641,-6.80161 0.394737,-2.26033 0.85453,-4.51108 1.379364,-6.75224 0.524833,-2.24116 1.114097,-4.47003 1.767776,-6.68662 0.653671,-2.21659 1.370972,-4.41823 2.151909,-6.6049 0.780929,-2.18668 1.62455,-4.35577 2.530861,-6.50726 0.906318,-2.15149 1.874229,-4.2828 2.903732,-6.39392 1.029503,-2.11113 2.11937,-4.199528 3.2696,-6.265209 1.150223,-2.065674 2.359421,-4.106133 3.627586,-6.121384 1.268166,-2.015251 2.593773,-4.002854 3.97683,-5.962822 1.383057,-1.959969 2.821892,-3.889938 4.316503,-5.789902 1.49462,-1.899963 3.04322,-3.767639 4.64579,-5.60302 1.60257,-1.83538 3.25719,-3.636261 4.96385,-5.402641 1.70668,-1.76638 3.46334,-3.496139 5.26999,-5.189262 1.80664,-1.693123 3.66111,-3.347576 5.5634,-4.963364 1.90229,-1.615787 3.85009,-3.190956 5.84342,-4.725513 1.99333,-1.534558 4.0298,-3.026654 6.10937,-4.476284 2.07958,-1.449635 4.19979,-2.855057 6.3606,-4.216275 2.16081,-1.361209 4.35963,-2.676574 6.59648,-3.946087 2.23686,-1.269512 4.50902,-2.491649 6.8165,-3.666408 2.30751,-1.174763 4.64753,-2.300728 7.02011,-3.377903 2.37257,-1.077175 4.77482,-2.104256 7.20675,-3.081247 2.43195,-0.976992 4.89065,-1.902718 7.3761,-2.777176 2.48546,-0.874459 4.99468,-1.696594 7.52765,-2.46641 2.53296,-0.769817 5.08664,-1.486385 7.66104,-2.149702 2.57439,-0.663321 5.1664,-1.272593 7.77602,-1.82782 2.6096,-0.555227 5.23369,-1.055736 7.87224,-1.50153 2.63853,-0.445795 5.28837,-0.836338 7.94949,-1.171627 2.66112,-0.335289 5.33031,-0.614921 8.0076,-0.838895 2.67728,-0.223977 5.35942,-0.392025 8.04642,-0.504149 2.68699,-0.112123 5.37561,-0.168184 8.06584,-0.168184 2.69023,0 5.37885,0.05606 8.06584,0.168184 2.687,0.112124 5.36913,0.280172 8.04642,0.504149 2.67728,0.223974 5.34646,0.503606 8.00757,0.838895 2.6611,0.335289 5.31094,0.725832 7.94949,1.171627 2.63855,0.445794 5.26263,0.946303 7.87222,1.50153 2.60959,0.555227 5.2016,1.164499 7.776,1.82782 2.57441,0.663317 5.12809,1.379885 7.66108,2.149702 2.53299,0.769816 5.0422,1.591951 7.52765,2.46641 2.48544,0.874458 4.94415,1.800184 7.37606,2.777176 2.43195,0.976991 4.8342,2.004072 7.20679,3.081247 2.37256,1.077175 4.71259,2.20314 7.02011,3.377903 2.30747,1.174759 4.57965,2.396896 6.8165,3.666408 2.23685,1.269513 4.43567,2.584878 6.59647,3.946091 2.16082,1.361214 4.28103,2.766636 6.36062,4.216271 2.07956,1.44963 4.11603,2.941726 6.10935,4.476284 1.99334,1.534557 3.94116,3.109726 5.84344,4.725513 1.90228,1.615788 3.75675,3.270241 5.56342,4.963368 1.80667,1.693119 3.56332,3.422878 5.26999,5.189258 1.70663,1.76638 3.36123,3.567261 4.9638,5.402641 1.60257,1.835381 3.15119,3.703057 4.64578,5.60302 1.4946,1.899964 2.93345,3.829933 4.31647,5.789902 1.38309,1.959968 2.70871,3.947578 3.97687,5.962829 1.26816,2.015252 2.47732,4.05571 3.62756,6.121377 1.15024,2.065681 2.24011,4.154079 3.26963,6.265209 1.02951,2.11113 1.9974,4.24244 2.90371,6.39393 0.90631,2.15148 1.74994,4.32057 2.53092,6.50725 0.78091,2.18667 1.49823,4.3883 2.15191,6.60489 0.65366,2.21659 1.24292,4.44547 1.76776,6.68663 0.52482,2.24116 0.98462,4.49191 1.3794,6.75226 0.39471,2.26033 0.72394,4.52752 0.98764,6.80159 0.26367,2.27406 0.46152,4.55224 0.59354,6.83455 0.13198,2.28233 0.19796,4.56602 0.19799,6.85109 z" /></g></g></g><g
         id="g56"><g
           clip-path="url(#clipPath62)"
           id="g58"><g
             transform="matrix(0.4873468,0,0,0.4873468,590.01324,218.51797)"
             id="g64"><path
               id="path66"
               style="fill:#eee612;fill-opacity:1;fill-rule:nonzero;stroke:none"
               d="m 479.48999,840.90997 c 0,0 -55.47,1.79999 -103.72,-4.58001 -27.04999,-3.58002 -38.45999,-26.18 -41.51001,-47.68 -2.39002,-16.84997 0.35998,-33.03997 4.73999,-38.86999 -42.63998,-1.78998 -50.04001,-39.32001 -50.04001,-39.32001 0,0 -15.82999,-2.04999 -18.38,-2.81 -1.70002,-0.51001 -13.4,-8.09997 -21.53,-13.22998 -4.12,-2.59002 -7.32001,-4.54998 -7.84,-4.64001 -1.53,-0.26001 -10.46001,-32.69 -10.46001,-32.69 l -30.39,-10.71997 -20.16999,-48.25 1.72,-10.94001 3.39,-21.48999 -28.60001,-17.61999 -7.14999,-52.59 3.66999,-15.13 7.06,-29.04001 16.08,-18.39002 c 0,0 -8.92999,-27.82998 -8.92999,-28.58999 0,-0.31 0.95,-5.17002 2.06,-10.76999 1.61,-8.01999 3.55,-17.57001 3.55,-17.57001 l 27.06999,-27.57999 14.04,-19.39999 c 0,0 0.11,-0.35999 0.31,-1.01999 1.89999,-6.41 12.19999,-41.06 12.19999,-43.14999 0,-2.29999 17.11,-17.10999 17.11,-17.10999 l 17.27001,-4.32999 40.67999,-10.22 c 0,0 2.56,-13.28 2.56,-15.58 0,-1.67999 14.29001,-14.91 21.89999,-21.85 2.76999,-2.51 4.65,-4.19001 4.65,-4.19001 l 29.36001,-3.32 c 0,0 23.48999,-27.32 24,-28.34 0.51001,-1.02 38.56,-9.44 38.56,-9.44 l 54.38,19.91 0.02,4.92 0.35999,100.73999 0.31,85.67999 0.29998,82.38001 0.29999,81.05999 0.29001,80.40003 0.29001,80 0.29001,79.77002 0.20001,55.59003 6e-5,-1.3e-4 z" /></g><g
             transform="translate(662,301)"
             id="g68"><g
               id="g70" /><g
               id="g82"><g
                 style="opacity:0.1"
                 id="g80"
                 clip-path="url(#clipPath74)"><g
                   id="g78"
                   transform="matrix(0.4873468,0,0,0.4873468,-71.986755,-82.482025)"><path
                     id="path76"
                     style="fill:#f5d80c;fill-opacity:1;fill-rule:nonzero;stroke:none"
                     d="m 479.29001,785.32001 c -28.69,3.82 -57.95999,5.79999 -87.69,5.79999 -19.32001,0 -38.44001,-0.83002 -57.34,-2.46998 C 331.87,771.80005 334.62,755.61005 339,749.78003 c -42.64001,-1.78998 -50.04001,-39.32001 -50.04001,-39.32001 0,0 -15.82999,-2.04999 -18.38,-2.81 -1.70002,-0.51001 -13.4,-8.09997 -21.53,-13.22998 -4.12,-2.59002 -7.32001,-4.54998 -7.84,-4.64001 -1.53,-0.26001 -10.46001,-32.69 -10.46001,-32.69 l -30.38999,-10.71997 -20.17,-48.25 1.72,-10.94001 3.39,-21.48999 -28.60001,-17.61999 -7.14999,-52.59 3.67,-15.13 7.05999,-29.04001 16.08001,-18.39002 c 0,0 -8.93,-27.82998 -8.93,-28.58999 0,-0.31 0.95,-5.17002 2.06,-10.76999 1.61,-8.01999 3.55,-17.57001 3.55,-17.57001 l 27.07,-27.57999 14.03999,-19.39999 c 0,0 0.11,-0.35998 0.31,-1.01999 1.89999,-6.41 12.19999,-41.06 12.19999,-43.14999 0,-2.29999 17.11,-17.10999 17.11,-17.10999 l 17.27001,-4.32998 40.67999,-10.22001 c 0,0 2.56,-13.27999 2.56,-15.58 0,-1.67999 14.29001,-14.91 21.89999,-21.85 2.76999,-2.51 4.65,-4.19001 4.65,-4.19001 l 29.35998,-3.32 c 0,0 23.48999,-27.32 24,-28.34 0.51001,-1.02 38.56,-9.44 38.56,-9.44 l 54.38,19.91 0.02,4.92 0.35999,100.73999 0.31,85.67999 0.29998,82.38001 0.29999,81.06 0.29001,80.40002 0.29001,80 0.29001,79.77002 9e-5,-1.2e-4 z" /></g></g></g><g
               id="g84" /><g
               id="g96"><g
                 style="opacity:0.1"
                 id="g94"
                 clip-path="url(#clipPath88)"><g
                   id="g92"
                   transform="matrix(0.4873468,0,0,0.4873468,-71.986755,-82.482025)"><path
                     id="path90"
                     style="fill:#f5d80c;fill-opacity:1;fill-rule:nonzero;stroke:none"
                     d="M 479,705.54999 C 450.48999,709.88 421.29999,712.12 391.60001,712.12 c -49.17002,0 -96.93,-6.14002 -142.55001,-17.70002 -4.11999,-2.59002 -7.32,-4.54998 -7.83999,-4.64001 -1.53,-0.26001 -10.46001,-32.69 -10.46001,-32.69 L 200.36,646.37 l -20.17,-48.25 1.72,-10.94001 3.39,-21.48999 -28.6,-17.61999 -7.15,-52.59 3.67,-15.13 7.06,-29.04001 16.08,-18.39002 c 0,0 -8.93001,-27.82998 -8.93001,-28.58999 0,-0.31 0.95,-5.17002 2.06,-10.76999 1.61,-8.01999 3.55,-17.57001 3.55,-17.57001 l 27.07,-27.57999 14.03999,-19.39999 c 0,0 0.11,-0.35999 0.31,-1.01999 1.89999,-6.41 12.19999,-41.06 12.19999,-43.14999 0,-2.29999 17.11,-17.10999 17.11,-17.10999 l 17.27001,-4.32999 40.67999,-10.22 c 0,0 2.56,-13.28 2.56,-15.58 0,-1.67999 14.29001,-14.91 21.89999,-21.85 2.76999,-2.51 4.65,-4.19001 4.65,-4.19001 l 29.35998,-3.32 c 0,0 23.48999,-27.32 24,-28.34 0.51001,-1.02 38.56,-9.44 38.56,-9.44 l 54.38,19.91 0.02,4.92 0.35999,100.73999 0.31,85.67999 0.29998,82.38001 0.29999,81.05999 0.29001,80.40003 0.29001,80 9e-5,-6e-5 z" /></g></g></g><g
               id="g98" /><g
               id="g110"><g
                 style="opacity:0.1"
                 id="g108"
                 clip-path="url(#clipPath102)"><g
                   id="g106"
                   transform="matrix(0.4873468,0,0,0.4873468,-71.986755,-82.482025)"><path
                     id="path104"
                     style="fill:#f5d80c;fill-opacity:1;fill-rule:nonzero;stroke:none"
                     d="m 478.70999,625.54999 c -28.29999,4.97998 -57.41,7.57001 -87.11001,7.57001 -74.81,0 -145.85001,-16.45002 -209.69001,-45.94001 l 3.39,-21.48999 -28.6,-17.61999 -7.15,-52.59 3.67,-15.13 7.06,-29.04001 16.08,-18.39002 c 0,0 -8.93001,-27.82998 -8.93001,-28.58999 0,-0.31 0.95,-5.17002 2.06,-10.76999 1.61,-8.01999 3.55,-17.57001 3.55,-17.57001 l 27.06999,-27.57999 14.04,-19.39999 c 0,0 0.11,-0.35999 0.31,-1.01999 1.89999,-6.41 12.19999,-41.06 12.19999,-43.14999 0,-2.29999 17.11,-17.10999 17.11,-17.10999 l 17.27001,-4.32999 40.67999,-10.22 c 0,0 2.56,-13.28 2.56,-15.58 0,-1.67999 14.29001,-14.91 21.89999,-21.85 2.76999,-2.51 4.65,-4.19001 4.65,-4.19001 l 29.36001,-3.32 c 0,0 23.48999,-27.32 24,-28.34 0.51001,-1.02 38.56,-9.44 38.56,-9.44 l 54.38,19.91 0.02,4.92 0.35999,100.73999 0.31,85.67999 0.29998,82.38001 0.29999,81.05999 0.29001,80.40003 9e-5,-6e-5 z" /></g></g></g></g><g
             transform="translate(664,301)"
             id="g112"><g
               id="g114" /><g
               id="g126"><g
                 style="opacity:0.1"
                 id="g124"
                 clip-path="url(#clipPath118)"><g
                   id="g122"
                   transform="matrix(0.4873468,0,0,0.4873468,-73.986755,-82.482025)"><path
                     id="path120"
                     style="fill:#f5d80c;fill-opacity:1;fill-rule:nonzero;stroke:none"
                     d="m 478.42001,545.15002 c -28.03,5.88001 -57.07,8.96998 -86.82,8.96998 C 303.25,554.12 221.13,526.88 153.22,480.35001 l 7.06,-29.04001 16.08,-18.39002 c 0,0 -8.93001,-27.82998 -8.93001,-28.58999 0,-0.31 0.95,-5.17002 2.06,-10.76999 1.61,-8.01999 3.55,-17.57001 3.55,-17.57001 l 27.07,-27.57999 14.03999,-19.39999 c 0,0 0.11,-0.35999 0.31,-1.01999 1.89999,-6.41 12.19999,-41.06 12.19999,-43.14999 0,-2.29999 17.11,-17.10999 17.11,-17.10999 l 17.27001,-4.32999 40.67999,-10.22 c 0,0 2.56,-13.28 2.56,-15.58 0,-1.67999 14.29001,-14.91 21.89999,-21.85 2.76999,-2.51 4.65,-4.19001 4.65,-4.19001 l 29.35998,-3.32 c 0,0 23.48999,-27.32 24,-28.34 0.51001,-1.02 38.56,-9.44 38.56,-9.44 l 54.38,19.91 0.02,4.92 0.35999,100.73999 0.31,85.67999 0.29998,82.38001 0.29999,81.05999 h 1.2e-4 z" /></g></g></g></g><g
             transform="translate(672,301)"
             id="g128"><g
               id="g130" /><g
               id="g142"><g
                 style="opacity:0.1"
                 id="g140"
                 clip-path="url(#clipPath134)"><g
                   id="g138"
                   transform="matrix(0.4873468,0,0,0.4873468,-81.986755,-82.482025)"><path
                     id="path136"
                     style="fill:#f5d80c;fill-opacity:1;fill-rule:nonzero;stroke:none"
                     d="m 478.12,464.09 c -27.65,7.20001 -56.65,11.03 -86.51999,11.03 -84.59,0 -162.15,-30.71 -222.11,-81.56 1.61,-8.01999 3.55,-17.57001 3.55,-17.57001 L 200.11002,348.41 214.15001,329.01001 c 0,0 0.11,-0.35999 0.31,-1.01999 1.89999,-6.41 12.19999,-41.06 12.19999,-43.14999 0,-2.29999 17.11,-17.10999 17.11,-17.10999 l 17.27001,-4.32999 40.67999,-10.22 c 0,0 2.56,-13.28 2.56,-15.58 0,-1.67999 14.29001,-14.91 21.89999,-21.85 2.76999,-2.51 4.65,-4.19001 4.65,-4.19001 l 29.36001,-3.32 c 0,0 23.48999,-27.32 24,-28.34 0.51001,-1.02 38.56,-9.44 38.56,-9.44 l 54.38,19.91 0.02,4.92 0.35999,100.73999 0.31,85.67999 0.29998,82.38001 4e-5,-3e-5 z" /></g></g></g></g><g
             transform="translate(694,301)"
             id="g144"><g
               id="g146" /><g
               id="g158"><g
                 style="opacity:0.1"
                 id="g156"
                 clip-path="url(#clipPath150)"><g
                   id="g154"
                   transform="matrix(0.4873468,0,0,0.4873468,-103.98676,-82.482025)"><path
                     id="path152"
                     style="fill:#f5d80c;fill-opacity:1;fill-rule:nonzero;stroke:none"
                     d="m 477.82001,381.70999 c -27.04001,9.34 -56.04999,14.41001 -86.22,14.41001 -68.05002,0 -130.18,-25.79999 -177.14,-68.13001 1.89999,-6.41 12.19999,-41.06 12.19999,-43.14999 0,-2.29999 17.11,-17.11002 17.11,-17.11002 l 17.27001,-4.32999 40.67999,-10.22 c 0,0 2.56,-13.28 2.56,-15.58 0,-1.67999 14.29001,-14.91 21.89999,-21.85001 2.76999,-2.50999 4.65,-4.19 4.65,-4.19 L 360.19,208.23997 c 0,0 23.48999,-27.31999 24,-28.33999 0.51001,-1.02001 38.56,-9.44 38.56,-9.44 l 54.38,19.91 0.02,4.92 0.35999,100.73999 0.31,85.67999 3e-5,3e-5 z" /></g></g></g></g><g
             transform="translate(717,301)"
             id="g160"><g
               id="g162" /><g
               id="g174"><g
                 style="opacity:0.1"
                 id="g172"
                 clip-path="url(#clipPath166)"><g
                   id="g170"
                   transform="matrix(0.4873468,0,0,0.4873468,-126.98676,-82.482025)"><path
                     id="path168"
                     style="fill:#f5d80c;fill-opacity:1;fill-rule:nonzero;stroke:none"
                     d="m 477.51001,296.03 c -25.70999,13.47 -54.94,21.09 -85.91,21.09 -50.84,0 -96.98001,-20.53 -130.56,-53.72001 l 40.67999,-10.22 c 0,0 2.56,-13.28 2.56,-15.58 0,-1.67999 14.29001,-14.91 21.89999,-21.85001 2.76999,-2.50999 4.65,-4.19 4.65,-4.19 L 360.19,208.23997 c 0,0 23.48999,-27.31999 24,-28.33999 0.51001,-1.02001 38.56,-9.44 38.56,-9.44 l 54.38,19.91 0.02,4.92 0.35999,100.73999 3e-5,3e-5 z" /></g></g></g></g><g
             transform="translate(748,301)"
             id="g176"><g
               id="g178" /><g
               id="g190"><g
                 style="opacity:0.1"
                 id="g188"
                 clip-path="url(#clipPath182)"><g
                   id="g186"
                   transform="matrix(0.4873468,0,0,0.4873468,-157.98675,-82.482025)"><path
                     id="path184"
                     style="fill:#f5d80c;fill-opacity:1;fill-rule:nonzero;stroke:none"
                     d="m 477.14999,195.28999 c -19.48999,26 -50.54998,42.83001 -85.55001,42.83001 -24.65,0 -47.34,-8.34 -65.41999,-22.37 2.76999,-2.50999 4.65,-4.19 4.65,-4.19 L 360.19,208.23999 c 0,0 23.48999,-27.32001 24,-28.34 0.51001,-1.02 38.56,-9.44 38.56,-9.44 l 54.38,19.91001 0.02,4.91999 z" /></g></g></g></g><g
             transform="matrix(0.4873468,0,0,0.4873468,590.01324,218.51797)"
             id="g192"><path
               id="path194"
               style="fill:#000000;fill-opacity:1;fill-rule:nonzero;stroke:none"
               d="m 565.96997,1047.1899 c 14.98999,73.85 -177.02002,73.82 -162.02002,0 z" /><path
               id="path196"
               style="fill:#000000;fill-opacity:1;fill-rule:nonzero;stroke:none"
               d="m 492.14999,850.40997 c -4.35,0 -8.75,-0.09 -13.07,-0.28003 -5.23999,-0.21997 -9.31,-4.65997 -9.07999,-9.90002 0.22,-5.23999 4.64001,-9.29999 9.89999,-9.08002 4.04999,0.16999 8.17002,0.26001 12.25,0.26001 5.25,0 9.5,4.25 9.5,9.5 0,5.25 -4.25,9.5 -9.5,9.5 z" /><path
               id="path198"
               style="fill:#f5d80c;fill-opacity:1;fill-rule:nonzero;stroke:none"
               d="m 803.48999,486.95001 c -0.11999,6.28 -0.45001,12.56 -1.02002,18.81 -1.53003,17.21002 -4.72998,34.28003 -9.64001,50.96002 -1.84998,6.29999 -3.88001,12.65003 -6.10999,19.02002 -4.19,11.98999 -9.09003,24.03003 -14.83002,35.88001 -6.48999,13.39001 -14.57,25.88 -23.73999,37.55999 -11.39001,14.53998 -24.45001,27.83002 -38.13,40.09003 -5.98999,5.35999 -11.77002,10.84998 -17.34003,16.45001 -19.96002,20.04999 -37.17999,41.47998 -51.25,63.51001 -1.5,2.34003 -2.96002,4.69 -4.39001,7.03998 -6.14002,10.14002 -11.39002,22.15002 -15.07001,33.46002 -5.90997,18.19 -7.84003,27.89002 -15.62,33.45001 -0.34997,0.27002 -0.70001,0.53998 -1.04998,0.78998 H 477.18994 v -636.8201 c 0,-8.02999 2.47,-15.46 6.67999,-21.6 7.26001,-10.60001 19.71,-17.33 33.56,-16.56 90.08997,5.07001 161.13001,44.22 210.27002,104.29999 25.75,31.48999 45.48999,68.73001 58.78998,109.82001 4.75,14.64999 8.67999,29.79 11.77002,45.33999 3.84003,19.32001 5.59997,38.94 5.22998,58.5 z" /></g><g
             transform="translate(822,300)"
             id="g200"><g
               id="g202" /><g
               id="g216"><g
                 style="opacity:0.25"
                 id="g214"
                 clip-path="url(#clipPath206)"><g
                   id="g212"
                   transform="matrix(0.4873468,0,0,0.4873468,-231.98676,-81.482025)"><path
                     id="path208"
                     style="fill:#eee612;fill-opacity:1;fill-rule:nonzero;stroke:none"
                     d="m 688.10999,233.87 c -48.81,-28.36001 -106.41004,-50.05001 -164.53998,-64.47001 64.60998,3.97001 120.26001,27.78 164.53998,64.47001 z" /><path
                     id="path210"
                     style="fill:#eee612;fill-opacity:1;fill-rule:nonzero;stroke:none"
                     d="m 803.12,495.04001 c -3.22999,54.87002 -21.54999,110.18002 -54.96998,154.13998 -33.78002,40.66999 -80.47998,74.41999 -106.71997,120.04999 -8.17999,12.33002 -14.91998,26.37 -19.46002,40.5 -6.23999,19.03998 -7.66998,28.14002 -16.66998,34.23999 H 477.19006 v -9.19 h 30.34 c 8.98001,-6.04999 10.43997,-15.22998 16.67001,-34.23999 4.53998,-14.14002 11.85999,-27.79999 19.46003,-40.5 93.70001,-156.56 176.27996,-83.53998 259.26,-264.56 0.07,-0.14999 0.13001,-0.29001 0.20002,-0.44 z" /></g></g></g></g><g
             transform="translate(822,338)"
             id="g218"><g
               id="g220" /><g
               id="g232"><g
                 style="opacity:0.1"
                 id="g230"
                 clip-path="url(#clipPath224)"><g
                   id="g228"
                   transform="matrix(0.4873468,0,0,0.4873468,-231.98676,-119.48203)"><path
                     id="path226"
                     style="fill:#eee612;fill-opacity:1;fill-rule:nonzero;stroke:none"
                     d="m 803.48999,486.95001 c -0.44,23.56 -3.96997,47.02997 -10.65997,69.77002 -1.84998,6.29999 -3.88001,12.65003 -6.10999,19.02002 -4.19,11.98999 -9.09003,24.03003 -14.83002,35.88001 -6.48999,13.39001 -14.57,25.88 -23.73999,37.55999 -11.39001,14.53998 -24.45001,27.83002 -38.13,40.09003 -5.98999,5.35999 -11.77002,10.84998 -17.34003,16.45001 -19.96002,20.04999 -37.17999,41.47998 -51.25,63.51001 -1.5,2.34003 -2.96002,4.69 -4.39001,7.03998 -6.14002,10.14002 -11.39002,22.15002 -15.07001,33.46002 -5.90997,18.19 -7.84003,27.89002 -15.61999,33.45001 -0.34998,0.27002 -0.70002,0.53998 -1.04999,0.78998 H 477.19 V 252.42 c 25.73999,-3.55 52.01001,-5.38001 78.71002,-5.38001 59.82001,0 117.53003,9.2 171.79999,26.24999 25.75,31.48999 45.48999,68.73001 58.78998,109.82001 4.75,14.64999 8.67999,29.79 11.77002,45.33999 3.84003,19.32001 5.59998,38.94 5.22998,58.5 z" /></g></g></g></g><g
             transform="translate(822,377)"
             id="g234"><g
               id="g236" /><g
               id="g248"><g
                 style="opacity:0.1"
                 id="g246"
                 clip-path="url(#clipPath240)"><g
                   id="g244"
                   transform="matrix(0.4873468,0,0,0.4873468,-231.98676,-158.48203)"><path
                     id="path242"
                     style="fill:#eee612;fill-opacity:1;fill-rule:nonzero;stroke:none"
                     d="m 803.48999,486.95001 c -0.44,23.56 -3.96997,47.02997 -10.65997,69.77002 -1.84998,6.29999 -3.88001,12.65003 -6.10999,19.02002 -4.19,11.98999 -9.09003,24.03003 -14.83002,35.88001 -6.48999,13.39001 -14.57,25.88 -23.73999,37.55999 -11.39001,14.53998 -24.45001,27.83002 -38.13,40.09003 -5.98999,5.35999 -11.77002,10.84998 -17.34003,16.45001 -19.96002,20.04999 -37.17999,41.47998 -51.25,63.51001 -1.5,2.34003 -2.96002,4.69 -4.39001,7.03998 -6.14002,10.14002 -11.39002,22.15002 -15.07001,33.46002 -5.90997,18.19 -7.84003,27.89002 -15.61999,33.45001 -0.34998,0.27002 -0.70002,0.53998 -1.04999,0.78998 H 477.19 V 332.2901 c 25.64002,-4.10999 51.93,-6.25 78.71002,-6.25 83.21003,0 161.69001,20.64001 230.58997,57.07001 4.75,14.64999 8.67999,29.79001 11.77002,45.33999 3.84003,19.32001 5.59998,38.94001 5.22998,58.5 z" /></g></g></g></g><g
             transform="translate(822,415)"
             id="g250"><g
               id="g252" /><g
               id="g264"><g
                 style="opacity:0.1"
                 id="g262"
                 clip-path="url(#clipPath256)"><g
                   id="g260"
                   transform="matrix(0.4873468,0,0,0.4873468,-231.98676,-196.48203)"><path
                     id="path258"
                     style="fill:#eee612;fill-opacity:1;fill-rule:nonzero;stroke:none"
                     d="m 803.48999,486.95001 c -0.44,23.56 -3.96997,47.02997 -10.65997,69.77002 -1.84998,6.29999 -3.88001,12.65003 -6.10999,19.02002 -4.19,11.98999 -9.09003,24.03003 -14.83002,35.88001 -6.48999,13.39001 -14.57,25.88 -23.73999,37.55999 -11.39001,14.53998 -24.45001,27.83002 -38.13,40.09003 -5.98999,5.35999 -11.77002,10.84998 -17.34003,16.45001 -19.96002,20.04999 -37.17999,41.47998 -51.25,63.51001 -1.5,2.34003 -2.96002,4.69 -4.39001,7.03998 -6.14002,10.14002 -11.39002,22.15002 -15.07001,33.46002 -5.90997,18.19 -7.84003,27.89002 -15.61999,33.45001 -0.34998,0.27002 -0.70002,0.53998 -1.04999,0.78998 H 477.19 V 412.5101 c 25.48999,-4.89999 51.81,-7.47 78.71002,-7.47 92.68,0 178.37,30.47 247.58997,81.91 z" /></g></g></g></g><g
             transform="translate(822,454)"
             id="g266"><g
               id="g268" /><g
               id="g280"><g
                 style="opacity:0.1"
                 id="g278"
                 clip-path="url(#clipPath272)"><g
                   id="g276"
                   transform="matrix(0.4873468,0,0,0.4873468,-231.98676,-235.48203)"><path
                     id="path274"
                     style="fill:#eee612;fill-opacity:1;fill-rule:nonzero;stroke:none"
                     d="m 786.71997,575.73999 c -4.19,11.98999 -9.09003,24.03003 -14.83002,35.88001 -6.48999,13.39001 -14.57,25.88 -23.73999,37.55999 -11.39001,14.53998 -24.45001,27.83002 -38.13,40.09003 -5.98999,5.35998 -11.77002,10.84998 -17.34003,16.45001 -19.96002,20.04999 -37.17999,41.47998 -51.25,63.51001 -1.5,2.34003 -2.96002,4.69 -4.39001,7.03998 -6.14002,10.14001 -11.39002,22.15002 -15.07001,33.46002 -5.90997,18.19 -7.84003,27.89002 -15.62,33.45001 -0.34997,0.27002 -0.70001,0.53998 -1.04998,0.78998 H 477.18994 V 493.33002 c 25.26001,-6.07999 51.62,-9.29001 78.71002,-9.29001 89.23999,0 170.47998,34.87002 230.82001,91.69998 z" /></g></g></g></g><g
             transform="translate(822,492)"
             id="g282"><g
               id="g284" /><g
               id="g296"><g
                 style="opacity:0.1"
                 id="g294"
                 clip-path="url(#clipPath288)"><g
                   id="g292"
                   transform="matrix(0.4873468,0,0,0.4873468,-231.98676,-273.48203)"><path
                     id="path290"
                     style="fill:#eee612;fill-opacity:1;fill-rule:nonzero;stroke:none"
                     d="m 748.15002,649.17999 c -11.39001,14.53998 -24.45001,27.83002 -38.13,40.09003 -5.98999,5.35998 -11.77002,10.84998 -17.34003,16.45001 -19.96002,20.04999 -37.17999,41.47998 -51.25,63.51001 -1.5,2.34003 -2.96002,4.69 -4.39001,7.03998 -6.14002,10.14001 -11.39002,22.15002 -15.07001,33.46002 -5.90997,18.19 -7.84003,27.89002 -15.61999,33.45001 -0.34998,0.27002 -0.70002,0.53998 -1.04999,0.78998 H 477.19 V 575.32007 c 24.82001,-7.96997 51.27002,-12.28003 78.71002,-12.28003 76.31,0 144.97998,33.29999 192.25,86.14001 z" /></g></g></g></g><g
             transform="translate(822,531)"
             id="g298"><g
               id="g300" /><g
               id="g312"><g
                 style="opacity:0.1"
                 id="g310"
                 clip-path="url(#clipPath304)"><g
                   id="g308"
                   transform="matrix(0.4873468,0,0,0.4873468,-231.98676,-312.48203)"><path
                     id="path306"
                     style="fill:#eee612;fill-opacity:1;fill-rule:nonzero;stroke:none"
                     d="m 692.67999,705.71997 c -19.96002,20.04999 -37.17999,41.47998 -51.25,63.51001 -1.5,2.34003 -2.96002,4.69 -4.39001,7.03998 -6.14002,10.14001 -11.39002,22.15002 -15.07001,33.46002 -5.90997,18.19 -7.84003,27.89002 -15.61999,33.45001 -0.34998,0.27002 -0.70002,0.53998 -1.04999,0.78998 H 477.19 V 660.29999 c 23.76999,-11.69 50.48999,-18.26001 78.71002,-18.26001 54.79999,0 103.93,24.76001 136.78003,63.67999 z" /></g></g></g></g><g
             transform="translate(822,569)"
             id="g314"><g
               id="g316" /><g
               id="g328"><g
                 style="opacity:0.3"
                 id="g326"
                 clip-path="url(#clipPath320)"><g
                   id="g324"
                   transform="matrix(0.4873468,0,0,0.4873468,-231.98676,-350.48203)"><path
                     id="path322"
                     style="fill:#eee612;fill-opacity:1;fill-rule:nonzero;stroke:none"
                     d="m 641.42999,769.22998 c -1.5,2.34003 -2.96002,4.69 -4.39001,7.03998 -6.14002,10.14001 -11.39002,22.15002 -15.07001,33.46002 -5.90997,18.19 -7.84003,27.89002 -15.61999,33.45001 -0.34998,0.27002 -0.70002,0.53998 -1.04999,0.78998 H 477.19 V 759.38 c 18.29999,-23.34002 46.75,-38.34002 78.71002,-38.34002 36.25,0 68,19.29999 85.53003,48.19 z" /></g></g></g></g><g
             transform="translate(825,300)"
             id="g330"><g
               id="g332" /><g
               id="g344"><g
                 style="opacity:0.55"
                 id="g342"
                 clip-path="url(#clipPath336)"><g
                   id="g340"
                   transform="matrix(0.4873468,0,0,0.4873468,-234.98676,-81.482025)"><path
                     id="path338"
                     style="fill:#ffffff;fill-opacity:1;fill-rule:nonzero;stroke:none"
                     d="m 803.48999,486.95001 c -0.11999,6.28 -0.45001,12.56 -1.02002,18.81 -3.59003,-0.20001 -7.27002,-0.56 -11.03998,-1.09 -16.09002,-313.28 -302.17001,-290.67999 -302.17001,-290.67999 l -5.39002,-28.44 c 7.26001,-10.60001 19.71,-17.33 33.56003,-16.56 90.09003,5.07001 161.13001,44.22 210.27002,104.30002 25.75,31.48999 45.48999,68.73001 58.78998,109.82001 4.75,14.64999 8.67999,29.79 11.77002,45.33999 3.84003,19.32001 5.59998,38.94001 5.22998,58.5 z" /></g></g></g></g><g
             transform="matrix(0.4873468,0,0,0.4873468,590.01324,218.51797)"
             id="g346"><path
               id="path348"
               style="fill:#000000;fill-opacity:1;fill-rule:nonzero;stroke:none"
               d="m 610.64001,850.40997 h -140.66 V 198.07001 c 0,-11.5 4.56,-22.22 12.84,-30.2 8.30999,-8 19.25,-12.18001 30.78998,-11.73 77.35998,2.92 145.91998,30.79001 198.26001,80.60001 49.09002,46.70999 82.96997,111.30002 97.98999,186.80002 8.82,44.35001 6.86999,90.27002 -5.63001,132.79999 -5.92999,20.17999 -13.16998,39.15002 -21.5,56.35998 -13.34003,27.54999 -34.29999,53.90998 -64.08002,80.58002 -28.75,25.75 -52.70001,54.28998 -71.19,84.83997 -5.46002,9.03002 -10.48999,20.21002 -14.15997,31.47998 -0.90998,2.78997 -1.71997,5.39001 -2.47998,7.78997 -4.48999,14.31 -7.46002,23.78998 -16.5,30.33002 -0.40003,0.31 -0.79999,0.60999 -1.20001,0.90003 l -2.47999,1.77001 v 0.02 z m -121.66,-19 h 115.30002 c 3.08002,-3.02002 4.94,-8.65997 8.40997,-19.69 0.77002,-2.46002 1.60999,-5.11999 2.53998,-7.97998 4.10999,-12.61999 9.78003,-25.21002 15.97998,-35.45001 19.46002,-32.15998 44.62,-62.15003 74.77002,-89.15998 27.90002,-24.98999 47.40997,-49.42999 59.65997,-74.71002 7.88001,-16.28003 14.73999,-34.26001 20.38001,-53.44 11.65002,-39.60001 13.45001,-82.39001 5.22998,-123.73999 -30.32001,-152.44 -134.38001,-246.69 -278.33002,-252.11999 -6.33999,-0.24001 -12.33999,2.05 -16.89001,6.42999 -4.53,4.36 -7.01999,10.22999 -7.01999,16.50999 v 633.34004 l -0.0299,0.01 z" /><path
               id="path350"
               style="fill:#000000;fill-opacity:1;fill-rule:nonzero;stroke:none"
               d="m 537.52002,846.97998 c -0.21997,0 -0.42999,0 -0.65002,-0.02 -5.24,-0.34997 -9.19001,-4.89001 -8.84003,-10.11999 1.15002,-17 1.97998,-40.28998 2.85998,-64.94001 1.26001,-35.45001 2.56,-72.10998 5.02002,-96.63 7.82001,-78.08002 30.34998,-136 68.66999,-176.22 -0.53998,-1.10001 -1.04999,-2.20999 -1.56,-3.32999 -5.41998,-12.04999 -8.81,-25.10001 -9.96002,-37.95999 -5.57001,-0.69 -10.82001,-1.67999 -15.47998,-2.56 -7.91999,-1.5 -16.5,-3.29001 -25.02002,-6.13 -3.46003,3.45001 -6.84003,6.44 -9.83002,8.89999 l -3.09998,2.56 C 521.59991,475.42 496.89993,495.82 475.91995,502.26 c -5.01001,1.54001 -10.32998,-1.28 -11.86999,-6.29001 -1.54001,-5.01999 1.28,-10.32999 6.29001,-11.86999 17.38,-5.34 41.33999,-25.12 57.19,-38.22001 l 3.11999,-2.57998 c 0.95002,-0.78 2.02002,-1.69 3.18,-2.72 -0.48999,-0.29999 -0.98999,-0.60001 -1.47998,-0.92002 C 516.06995,429.29 507.01999,410.95998 508.11996,390.64 c 0.37,-6.82 1.5,-27.55999 21.13999,-34.38 12.41998,-4.32001 26.33002,-1.35999 34.59997,7.35001 7.53003,7.92999 12.35999,18.27999 13.59998,29.14001 1.72998,15.14999 -3.84998,28.98001 -11.63,40.44 5.17999,1.35999 10.35998,2.41001 15.26,3.34 4.09003,0.76999 8.07001,1.48999 11.90998,2.04001 0.09,-1.42002 0.16998,-2.84 0.26001,-4.26999 0.59997,-10.39002 1.22998,-21.13999 5.36999,-31.63001 0.78998,-2.01001 1.78003,-3.95001 2.91999,-5.76999 10.11999,-16.01998 29.98999,-19.35 43.92999,-17.33999 10.92999,1.57998 19.25,7.51001 22.23999,15.88 3.20001,8.95002 2.59003,19.25 -1.66998,28.25 -6.40998,13.54001 -20.37,25 -38.32001,31.44001 -5.12,1.83999 -10.38001,2.82998 -15.59003,3.25 1.03003,9.20999 3.42999,18.32998 6.98999,26.86999 0.46997,-0.39999 0.94,-0.79999 1.40997,-1.19 5.93,-4.95999 13.18,-10.42999 22.04999,-13.32001 13.28998,-4.34 30.85999,-2.10001 44.77997,5.70001 12.67999,7.10999 21.21002,18.82999 22.82001,31.34 2.08002,16.15002 -7.02002,33.78998 -21.17999,41.03003 -13.96998,7.14001 -30.94001,4.01001 -50.44001,-9.31 -9.03003,-6.16998 -17.07,-14.09997 -23.84997,-23.42999 -33.13001,36.96002 -52.79999,89.96997 -59.93,161.10998 -2.40002,23.90998 -3.69,60.26001 -4.94,95.41004 -0.88,24.81 -1.71997,48.25 -2.89001,65.54999 -0.34003,5.02002 -4.51001,8.85998 -9.46997,8.85998 l 0.0302,-0.0201 z m 90.88,-344.57001 c 5.78003,8.51999 12.85999,15.89002 20.91999,21.39002 13.30999,9.09997 23.77002,11.82001 31.08001,8.08001 7.13001,-3.64001 12.06,-13.36999 10.98999,-21.69 -0.82,-6.38 -6.03002,-13.13 -13.27001,-17.19 -9.34998,-5.25 -21.24,-6.94 -29.58002,-4.20999 -5.78998,1.89001 -11.21002,6.03 -15.75,9.82999 -1.47998,1.23999 -2.94,2.5 -4.37,3.79 l -0.02,-3e-5 z m 9.66999,-104.38 c -7.77002,0 -16.38001,2.6 -20.41999,9 -0.51001,0.81 -0.96002,1.69 -1.32,2.6 -3.02002,7.66001 -3.53998,16.45002 -4.08002,25.75 -0.08,1.31 -0.15002,2.63001 -0.23999,3.93 3.22998,-0.34 6.33002,-1.01001 9.32001,-2.07999 13.04998,-4.69 23.35998,-12.79999 27.57,-21.69 2.12,-4.48001 2.46998,-9.48001 0.95002,-13.72 -0.46003,-1.26999 -3.21997,-2.92002 -7.06,-3.47 -1.5,-0.22001 -3.09998,-0.32999 -4.72998,-0.32999 l 0.01,0.01 z m -97.21002,-24.70999 c -1.78998,0 -3.62,0.29001 -5.34998,0.88 -4.56,1.57999 -7.73999,5.16001 -8.40002,17.47 -0.73999,13.57999 4.90002,25.23001 15.46997,31.97 1.53003,0.98002 3.10998,1.88001 4.73999,2.71 6.91998,-8.96 12.59997,-20.04001 11.28997,-31.44001 -0.78002,-6.79001 -3.78997,-13.26001 -8.5,-18.20999 -2.07,-2.17999 -5.58001,-3.38 -9.25,-3.38 z" /><path
               id="path352"
               style="fill:#000000;fill-opacity:1;fill-rule:nonzero;stroke:none"
               d="m 381.85001,258.37 c -2.15,0 -4.31,-0.73002 -6.09,-2.21 -13.94,-11.66 -21.45001,-24.32 -22.31,-37.61 -0.79999,-12.35 4.32999,-24.89 14.84,-36.28 14.06,-15.24 33.39999,-23.8 53.08999,-23.55999 17.76999,0.24 31.26999,7.27999 42.10999,12.94 3.70001,1.92999 7.20001,3.75999 10.34,5.02 4.86999,1.96001 7.23001,7.49001 5.26999,12.36 -1.96,4.87 -7.48999,7.22001 -12.35999,5.27001 -4.01001,-1.61 -7.91,-3.65 -12.04001,-5.8 -9.98999,-5.21001 -20.32001,-10.61001 -33.57001,-10.79 -14.30999,-0.21 -28.45999,6.16001 -38.86999,17.44 -7,7.58001 -10.31,15.04 -9.85001,22.18 0.51001,7.89999 5.73999,16.07 15.54001,24.25999 4.01999,3.37 4.56,9.36 1.19,13.38001 -1.88,2.25001 -4.57998,3.40998 -7.29,3.40998 z" /><path
               id="path354"
               style="fill:#000000;fill-opacity:1;fill-rule:nonzero;stroke:none"
               d="m 389.76001,315.01001 c -10.98999,0 -22.16,-3.01001 -32.20001,-9.10001 -4.48001,-2.72 -5.91001,-8.57 -3.19,-13.04998 2.72,-4.48002 8.57,-5.91001 13.04998,-3.19001 17.48001,10.60999 35.98001,6.59 46.54999,-2.1 10.47,-8.60999 13.56,-21.51999 8.47,-35.43 -1.79999,-4.92999 0.73001,-10.38 5.65,-12.19 4.92001,-1.8 10.38,0.73 12.19,5.65 7.92001,21.61999 2.58999,42.79998 -14.23999,56.63998 -10.29999,8.47 -23.16001,12.76999 -36.28,12.76999 z" /><path
               id="path356"
               style="fill:#000000;fill-opacity:1;fill-rule:nonzero;stroke:none"
               d="m 295.10999,342.78 c -18.09,0 -37.4,-11.57001 -39.79001,-31.95999 -0.61,-5.20999 3.11999,-9.93 8.32998,-10.54001 5.20999,-0.62 9.93,3.11999 10.54001,8.32999 1.17002,10.01001 12.41001,15.66 22.13001,15.14001 5.98001,-0.32001 19.92999,-3.47 20.17999,-25.88 0.06,-5.21 4.29999,-9.4 9.5,-9.4 0.04,0 0.07,0 0.10998,0 5.25,0.06 9.45002,4.35999 9.4,9.60001 -0.35001,31.48001 -20.78,43.72 -38.16998,44.64001 -0.73002,0.04 -1.47001,0.06 -2.21,0.06 l -0.02,0.01 z" /><path
               id="path358"
               style="fill:#000000;fill-opacity:1;fill-rule:nonzero;stroke:none"
               d="m 449.92999,453.63 c -4.67001,0 -8.73999,-3.44 -9.39999,-8.19 -3.44,-24.72 0.54001,-39.61999 7.01999,-48.58001 C 441.03,393.53 435.69,388.96997 431.56998,383.20999 422.27997,370.19 420.02997,352.34 424.85999,330.13 c 0.07,-0.33999 0.14001,-0.61999 0.17999,-0.82998 1.03,-5.14002 6.04001,-8.48001 11.17999,-7.44 5.14002,1.02999 8.48001,6.04 7.44,11.17999 -0.06,0.29001 -0.14001,0.67001 -0.23999,1.13 -4.54998,20.85001 -0.54998,32.17002 3.60999,37.98999 4.76999,6.68 12.63,10.57999 24.03,11.92002 4.69,0.54998 8.26001,4.45001 8.39001,9.17001 0.13001,4.72 -3.22,8.81 -7.85998,9.63001 -11.53,2.01001 -15.65,15.45001 -12.25,39.94 0.72,5.20001 -2.9,10 -8.10001,10.72 -0.44,0.06 -0.89001,0.09 -1.32001,0.09 l 0.01,-4e-5 z" /><path
               id="path360"
               style="fill:#000000;fill-opacity:1;fill-rule:nonzero;stroke:none"
               d="m 299.87,267.89001 c -5.04999,0 -9.25,-3.98001 -9.48002,-9.07 -0.86999,-19.34 6.12,-36.06 20.23999,-48.34 16.87,-14.69 40.5,-19.64 55.12,-16.92999 5.16,0.96001 8.57001,5.91 7.60998,11.07001 -0.95999,5.16 -5.91,8.57 -11.07,7.61 -8.47,-1.57001 -26.23001,1.3 -39.19,12.58 -9.72001,8.47 -14.34,19.61999 -13.73002,33.16 0.23999,5.23999 -3.82,9.67999 -9.05999,9.92002 -0.15,0 -0.29001,0 -0.44001,0 z" /><path
               id="path362"
               style="fill:#000000;fill-opacity:1;fill-rule:nonzero;stroke:none"
               d="m 367.70999,483.10999 c -0.86999,0 -1.75,-0.12 -2.63,-0.37 -5.04001,-1.45001 -7.95002,-6.72 -6.5,-11.76001 8.89999,-30.89999 6.83999,-52.64001 -5.95999,-62.85998 -9.99,-7.98002 -23.63001,-6.57999 -26.4,-5.04999 l -0.64001,0.39001 -0.66001,0.26999 c -29.44,12.23999 -55.14001,8.14002 -64.83001,5.81 l -0.62,-0.15 -0.60001,-0.23001 c -47,-18.26999 -56.83,-51.11999 -58.50999,-69.07998 -2.92999,-31.35001 13.78,-64.06 41.58,-81.38001 26.48999,-16.5 57.97,-15.97999 86.38001,1.42999 4.47,2.74 5.88,8.59 3.14001,13.06 -2.73999,4.47 -8.58999,5.88001 -13.06,3.14002 -30.17999,-18.5 -54.55999,-8.88001 -66.39999,-1.5 -21.5,13.39001 -34.95,39.5 -32.70999,63.48001 2.17999,23.29999 18.45999,42.06 45.86999,52.89999 8.23999,1.89002 28.48999,4.76999 51.94001,-4.81 9.42999,-5.11999 30.67001,-5.83999 46.52999,6.21 13.96,10.60998 27.57999,33.72 13.21,83.61999 -1.20002,4.16 -5,6.87 -9.12,6.87 l -0.01,0.01 z" /></g><g
             transform="translate(703,354)"
             id="g364"><g
               id="g366" /><g
               id="g378"><g
                 style="opacity:0.55"
                 id="g376"
                 clip-path="url(#clipPath370)"><g
                   id="g374"
                   transform="matrix(0.4873468,0,0,0.4873468,-112.98676,-135.48203)"><path
                     id="path372"
                     style="fill:#ffffff;fill-opacity:1;fill-rule:nonzero;stroke:none"
                     d="m 304.57999,286.17001 c -3.98001,-0.76999 -7.92002,-1.45999 -11.84,-1.85 -3.92001,-0.35001 -7.81,-0.47 -11.60999,-0.18 -7.58999,0.53 -14.79998,2.75 -20.61999,6.78 -2.92001,1.98999 -5.5,4.41001 -7.71001,7.10999 -2.19,2.73001 -4,5.76999 -5.41,8.98999 -2.84,6.44 -4.08,13.64999 -3.73,20.72 0.14,3.54001 0.71001,7.04999 1.72,10.41 0.96001,3.37 2.37,6.57999 4.15,9.54001 3.61,5.9 8.92001,10.62 15.42001,13.51999 3.25,1.44 6.76001,2.45001 10.42999,3.06 3.66001,0.59 7.47001,0.79001 11.31,0.69 7.72,-0.13 15.54999,-1.64999 23.44,-3.42001 -3.5,2.01999 -7.10998,3.95001 -10.92999,5.42001 -1.88,0.82999 -3.85,1.41001 -5.81,2.09 -1.98999,0.57001 -3.98999,1.14001 -6.04,1.54001 -4.10001,0.83999 -8.32999,1.32 -12.65,1.23001 -4.31,-0.10001 -8.69,-0.76001 -12.95001,-2.13001 -8.53999,-2.67001 -16.27,-8.51001 -21.39,-16.04001 -2.56,-3.76001 -4.49,-7.91 -5.88,-12.17999 -1.36,-4.29001 -2.13001,-8.73001 -2.34,-13.19 -0.17999,-4.45999 0.14999,-8.92999 1.02,-13.29999 0.91001,-4.35998 2.34,-8.63 4.36,-12.64001 2.03,-3.98999 4.54,-7.78 7.67,-11.04001 3.10001,-3.28 6.73,-6.04999 10.68,-8.16001 3.95001,-2.10998 8.20999,-3.54998 12.51998,-4.27999 4.31,-0.75 8.64002,-0.81 12.84,-0.37 4.20001,0.45999 8.28,1.39999 12.17999,2.69 3.91001,1.29999 7.60999,3.04001 11.16001,4.98001 l 0.01,0.01 z" /></g></g></g></g><g
             transform="translate(681,399)"
             id="g380"><g
               id="g382" /><g
               id="g394"><g
                 style="opacity:0.55"
                 id="g392"
                 clip-path="url(#clipPath386)"><g
                   id="g390"
                   transform="matrix(0.4873468,0,0,0.4873468,-90.986755,-180.48203)"><path
                     id="path388"
                     style="fill:#ffffff;fill-opacity:1;fill-rule:nonzero;stroke:none"
                     d="m 202.89999,371.54999 c -2.05999,7.03 -3.17999,13.47 -3.39999,19.86999 -0.24001,6.35999 0.38,12.57001 1.87,18.47 1.50999,5.9 3.88,11.48002 7.39999,16.53 1.75,2.54001 3.81,4.93 6.17999,7.20999 2.37,2.29001 5.07001,4.38001 8.06,6.56 -7.35001,0.45001 -14.99001,-2.47 -20.89,-7.6 -5.94,-5.13001 -10.05,-12.32001 -11.93001,-19.85999 -1.91,-7.56 -1.72,-15.54001 0.4,-22.85001 1.08,-3.64999 2.64,-7.14001 4.69,-10.27999 2.07001,-3.12 4.57001,-5.95002 7.61,-8.04001 l 0.01,-0.01 z" /></g></g></g></g><g
             transform="translate(668,442)"
             id="g396"><g
               id="g398" /><g
               id="g410"><g
                 style="opacity:0.55"
                 id="g408"
                 clip-path="url(#clipPath402)"><g
                   id="g406"
                   transform="matrix(0.4873468,0,0,0.4873468,-77.986755,-223.48203)"><path
                     id="path404"
                     style="fill:#ffffff;fill-opacity:1;fill-rule:nonzero;stroke:none"
                     d="m 180.19,459.98999 c -3.67999,7.14999 -6.32,14.23001 -7.92,21.5 -1.61,7.25 -2.22,14.60001 -1.89999,21.89999 0.34,7.29999 1.61,14.55002 3.88001,21.62003 2.25,7.09003 5.58,13.89001 9.75999,20.77002 -6.89,-4.21002 -12.42,-10.66998 -16.27001,-18 -3.83999,-7.35999 -6,-15.64002 -6.36,-23.98001 -0.36999,-8.34 1.02001,-16.76999 4.17,-24.45001 3.16001,-7.64002 8.06,-14.64002 14.63001,-19.36002 h 0.01 z" /></g></g></g></g><g
             transform="translate(685,505)"
             id="g412"><g
               id="g414" /><g
               id="g426"><g
                 style="opacity:0.55"
                 id="g424"
                 clip-path="url(#clipPath418)"><g
                   id="g422"
                   transform="matrix(0.4873468,0,0,0.4873468,-94.986755,-286.48203)"><path
                     id="path420"
                     style="fill:#ffffff;fill-opacity:1;fill-rule:nonzero;stroke:none"
                     d="m 197.86,588.77002 c 0.62,5.40002 1.73,10.31 3.44,14.95001 1.69001,4.63001 3.94001,8.96002 6.67,12.96002 2.73,3.98999 5.94,7.65998 9.65,10.90998 3.69999,3.28003 7.88999,6.08001 12.64999,8.71997 -5.46001,0.20001 -10.98,-1.44 -15.83,-4.22998 -4.86,-2.81 -9.08,-6.78998 -12.25,-11.46002 -3.18,-4.66999 -5.35001,-10.03003 -6.21001,-15.58002 -0.84,-5.53003 -0.39,-11.29999 1.88001,-16.28003 l 1e-5,0.0101 z" /></g></g></g></g><g
             transform="translate(777,307)"
             id="g428"><g
               id="g430" /><g
               id="g442"><g
                 style="opacity:0.55"
                 id="g440"
                 clip-path="url(#clipPath434)"><g
                   id="g438"
                   transform="matrix(0.4873468,0,0,0.4873468,-186.98676,-88.482025)"><path
                     id="path436"
                     style="fill:#ffffff;fill-opacity:1;fill-rule:nonzero;stroke:none"
                     d="m 450.44,203.48 c -2.83999,-3.16001 -5.83999,-5.89 -9.14999,-7.91001 -3.29001,-2.03 -6.82999,-3.38 -10.45001,-4.03999 -7.23999,-1.34 -14.76999,-0.06 -21.41001,3.00999 -6.61999,3.11 -12.41,8.06 -15.83999,14.51 -1.73001,3.22 -2.84,6.82001 -3.23999,10.67 -0.43,3.85 -0.09,7.89999 0.63,12.08 C 388.5,228.37 386.77002,224.27998 386.05002,219.87 c -0.72,-4.41001 -0.29999,-9.12 1.20999,-13.51 1.48999,-4.39999 4.07001,-8.41 7.26001,-11.75999 0.78,-0.86 1.67999,-1.59 2.51999,-2.38001 0.88,-0.75 1.81,-1.42999 2.72,-2.14 0.95001,-0.64999 1.94,-1.24 2.91,-1.86 1.01001,-0.55 2.03,-1.08 3.06,-1.61 4.17999,-1.92 8.69,-3.14 13.29999,-3.47 4.6,-0.33 9.29001,0.22 13.64001,1.77 4.34,1.54 8.29999,4.09 11.35001,7.35001 3.04999,3.25999 5.23999,7.13 6.42001,11.2 l -3e-5,0.02 z" /></g></g></g></g><g
             transform="matrix(0.4873468,0,0,0.4873468,590.01324,218.51797)"
             id="g444"><path
               id="path446"
               style="fill:#000000;fill-opacity:1;fill-rule:nonzero;stroke:none"
               d="m 353.35999,406.76001 c -0.44001,0 -0.89002,-0.03 -1.34,-0.09 -5.19,-0.73999 -8.81,-5.54001 -8.07001,-10.73999 4.9,-34.6 20.01001,-53.39999 32.82001,-56.67999 5.07001,-1.29999 10.17999,1.76001 11.5,6.82001 1.32001,5.06 -1.73999,10.25 -6.79001,11.58999 -3.44,0.92002 -14.73001,12.76999 -18.72,40.93 -0.67001,4.73999 -4.73999,8.17001 -9.39002,8.17001 l -0.01,-3e-5 z" /><path
               id="path448"
               style="fill:#000000;fill-opacity:1;fill-rule:nonzero;stroke:none"
               d="m 372.59,460.31 c -0.98001,0 -1.97,-0.15 -2.95002,-0.47 -4.98999,-1.63001 -7.70999,-7 -6.07998,-11.98001 8.03,-24.57001 19.70999,-28.34 34.14001,-30.72001 0.95001,-0.16 1.91001,-0.30999 2.89002,-0.48999 5.17001,-0.92001 10.1,2.51001 11.03,7.68 0.92001,5.17001 -2.51001,10.1 -7.68,11.03 -1.07,0.19 -2.11999,0.35998 -3.14999,0.52999 -9.95999,1.64002 -14.09,2.32001 -19.17001,17.87 -1.31,4.01001 -5.03,6.54999 -9.03,6.54999 z" /><path
               id="path450"
               style="fill:#000000;fill-opacity:1;fill-rule:nonzero;stroke:none"
               d="m 244.61,574.34998 c -3.2,0 -6.33,-1.62 -8.11999,-4.56 -2.73,-4.47998 -1.31,-10.33002 3.16999,-13.06 19,-11.58002 40.96,-29.69 37.67002,-50.16998 -3.10001,-19.29001 -27.25,-34.5 -36.88001,-36.75 -5.11,-1.19 -8.28999,-6.29999 -7.1,-11.41001 1.19,-5.10998 6.3,-8.29 11.41,-7.1 15.07001,3.51001 46.63,23.03 51.32001,52.23999 1.89001,11.78998 -0.81,23.52002 -8.04999,34.85998 -7.67001,12.03003 -20.63001,23.65003 -38.5,34.54999 -1.53999,0.94 -3.25,1.39002 -4.94,1.39002 l 0.02,0.01 z" /><path
               id="path452"
               style="fill:#000000;fill-opacity:1;fill-rule:nonzero;stroke:none"
               d="m 337.81,562.54999 c -26.62,0 -58.39002,-16.77002 -62.56,-19.03998 -4.60999,-2.5 -6.32001,-8.27002 -3.81,-12.88001 2.51001,-4.60998 8.26999,-6.32 12.88001,-3.80999 16.05999,8.71002 47.20001,20.61999 62.33999,15.52002 12.29999,-4.14002 21.79999,-16.98999 31,-29.40998 0.91001,-1.23001 1.82001,-2.45999 2.72,-3.67001 12.68,-16.98001 31.97001,-27.54001 52.91999,-29 11.91,-0.82999 24.86999,0.12 38.5,2.82001 5.14999,1.01999 8.5,6.01001 7.48001,11.16 -1.01999,5.15 -6.01999,8.5 -11.16,7.48001 -11.99,-2.36999 -23.26001,-3.20999 -33.5,-2.5 -15.42002,1.07001 -29.64002,8.87 -39.01001,21.41001 -0.89002,1.19 -1.78,2.39001 -2.67002,3.59997 -10.42999,14.09003 -22.25,30.07001 -40.20001,36.12 -4.60001,1.54998 -9.66,2.21002 -14.92001,2.21002 l -0.01,-0.0101 z" /><path
               id="path454"
               style="fill:#000000;fill-opacity:1;fill-rule:nonzero;stroke:none"
               d="m 445.66,620.84003 c -4.80999,0 -9.92999,-0.96003 -15.25,-2.93 -4.92001,-1.82 -7.44,-7.28003 -5.61999,-12.20001 1.82001,-4.91998 7.28,-7.44 12.20001,-5.61999 13.87,5.11999 18.13001,-2.41999 19.53,-4.90003 5.78,-10.21997 3.42001,-27.83001 -4.60001,-34.25 -9.98001,-8 -26.39999,5 -32.98999,10.96002 -3.89001,3.52002 -9.89999,3.21003 -13.42001,-0.67999 -3.51999,-3.89001 -3.20999,-9.90002 0.67999,-13.41998 30.62,-27.66998 50.48001,-17.39002 57.60001,-11.69 15.23999,12.20001 19.64999,40.04998 9.26001,58.42999 -6.04001,10.66998 -15.78,16.29999 -27.41001,16.29999 h 0.02 z" /><path
               id="path456"
               style="fill:#000000;fill-opacity:1;fill-rule:nonzero;stroke:none"
               d="m 455.59,682.35999 c -20.21,0 -29.01001,-8.75 -35.29999,-18.58002 -2.31,-3.62 -5.98999,-6.08002 -10.35999,-6.91998 -19.57,-3.81 -35.63,-17.27002 -47.73001,-40.01001 L 361.78,616.06 c -2.51001,-4.60999 -0.81,-10.38001 3.79999,-12.89002 4.60998,-2.51001 10.38,-0.80999 12.89001,3.79999 0.14002,0.26001 0.31,0.58002 0.51001,0.96002 9.28,17.44001 20.92001,27.63001 34.59,30.28998 9.38,1.82001 17.66,7.40997 22.73001,15.33002 3.76001,5.88 8.01999,12.53003 31.19,8.75 5.17999,-0.84998 10.06,2.65997 10.91,7.84002 0.85001,5.18 -2.66,10.06 -7.83999,10.90998 -5.59,0.90997 -10.54001,1.33001 -14.95001,1.33001 l -0.02,-0.02 z" /><path
               id="path458"
               style="fill:#000000;fill-opacity:1;fill-rule:nonzero;stroke:none"
               d="m 404.09,723.17999 c -13.09,0 -25.18,-3.65002 -35.73001,-10.88 -13.41001,-9.19 -20.76999,-21.58002 -23.91001,-26.88001 C 344.09,684.81 343.80997,684.32996 343.59,684 c -2.89002,-4.38 -1.68,-10.27002 2.70001,-13.15997 4.38,-2.89002 10.26999,-1.68 13.16,2.70001 0.34,0.51001 0.78,1.25 1.32999,2.17999 5.54001,9.32001 22.38998,37.70001 62.01001,25.40997 5.01001,-1.54998 10.32999,1.25 11.89001,6.26001 1.54999,5.01001 -1.25,10.33002 -6.26001,11.89002 -8.39001,2.59997 -16.54001,3.89001 -24.33999,3.89001 l 0.01,0.01 z" /><path
               id="path460"
               style="fill:#000000;fill-opacity:1;fill-rule:nonzero;stroke:none"
               d="m 407.23001,844.15002 c -3.79999,0 -7.39001,-2.29998 -8.85998,-6.05999 -5.4,-13.89002 -5.43,-51.5 13.77999,-73.84998 9.60999,-11.19 27.85999,-23 60.22001,-15.76001 5.11999,1.15003 8.33999,6.21997 7.20001,11.34003 -1.15,5.11999 -6.23001,8.34003 -11.34,7.20001 -18.6,-4.15997 -32.60998,-0.92999 -41.66,9.59998 -14.32001,16.66998 -13.4,47.08001 -10.48001,54.58001 1.89999,4.89002 -0.51999,10.40003 -5.41001,12.29999 -1.13,0.44 -2.29998,0.65003 -3.44,0.65003 l -0.01,-7e-5 z" /><path
               id="path462"
               style="fill:#000000;fill-opacity:1;fill-rule:nonzero;stroke:none"
               d="m 374.60999,847.53998 c -1.85001,0 -3.72001,-0.53998 -5.35999,-1.65998 -1.26001,-0.85998 -2.79001,-1.83001 -4.41,-2.85998 -8.53,-5.40997 -21.42002,-13.59003 -30.73999,-28.41998 -10.89002,-17.33002 -14.32999,-39.84003 -10.21,-66.90003 0.79001,-5.19 5.63001,-8.75 10.82001,-7.96002 5.19,0.78998 8.75,5.63001 7.95999,10.82001 -7.76001,50.97003 16.37,66.28998 32.34,76.41998 1.76001,1.12 3.42999,2.16998 4.95001,3.21997 4.32999,2.96002 5.44,8.88001 2.48001,13.21002 -1.83999,2.69001 -4.82,4.14002 -7.85,4.14002 l 0.02,-0.01 z" /><path
               id="path464"
               style="fill:#000000;fill-opacity:1;fill-rule:nonzero;stroke:none"
               d="m 333.5,758.63 c -6.70999,0 -15.22,-0.77001 -23.63,-4.09997 -11.46,-4.53998 -26.26999,-15.40003 -31.81,-41.33002 -1.10001,-5.13 2.17001,-10.17999 7.31,-11.28003 5.13,-1.09997 10.17999,2.16999 11.27999,7.29999 6.19001,28.96997 26.04001,31.45001 44.63001,30.04999 1.36999,-0.1 2.54999,-0.19 3.57999,-0.21002 0.05,0 0.1,0 0.16,0 5.17999,0 9.41,4.15002 9.5,9.34997 0.08,5.25 -4.10001,9.57001 -9.34,9.65003 -0.47,0 -1.44,0.08 -2.45999,0.15997 -2.29001,0.16998 -5.47,0.40997 -9.20001,0.40997 l -0.02,1.2e-4 z" /><path
               id="path466"
               style="fill:#000000;fill-opacity:1;fill-rule:nonzero;stroke:none"
               d="m 280.70001,720.70001 c -5.04001,0 -10.22,-0.73999 -15.31,-2.28998 -19.38,-5.90002 -39.22999,-24.96002 -36.82,-60.73999 l 0.03,-0.51001 0.09,-0.5 c 3.62,-20.55999 13.03,-35.82 27.97,-45.35998 25.86002,-16.52002 59.70002,-10.06 73.04001,-6.52002 5.07001,1.34997 8.09,6.54999 6.73999,11.61999 -1.35,5.07001 -6.54999,8.09003 -11.61999,6.73999 -8.52,-2.26001 -37.88002,-8.65002 -57.94002,4.16999 -10.16,6.48999 -16.67999,17.29999 -19.39999,32.14001 -1.81,29.81 15.76001,38.45001 23.42999,40.77997 12.21,3.71997 24.04999,-0.08 27.45002,-5.96997 3.73999,-6.47998 -1.48999,-17.33002 -13.98999,-29.03003 -3.82999,-3.58002 -4.03,-9.59998 -0.45002,-13.42999 3.59,-3.83002 9.60001,-4.03003 13.43,-0.45001 27.97,26.16998 21.52999,45.36999 17.45999,52.40997 -6.18,10.70001 -19.51999,16.92999 -34.12,16.92999 l 0.01,0.0101 z" /><path
               id="path468"
               style="fill:#000000;fill-opacity:1;fill-rule:nonzero;stroke:none"
               d="m 236.24001,665.79999 c -17.30001,0 -42.12,-11.65003 -56.43001,-32.64002 -13.55001,-19.88 -14.60001,-43.76001 -2.98,-67.25 l 0.53,-1.08001 0.78999,-0.90998 c 24.9,-28.86999 22.60001,-41.16998 21.88001,-43.34002 -0.42999,-1.29999 -1.10001,-1.97998 -2.19,-2.22998 -5.12,-1.15998 -8.32001,-6.25 -7.16001,-11.37 1.16001,-5.11999 6.25,-8.32001 11.37,-7.16 7.66,1.73999 13.5,7.14001 16.03,14.81997 3.44999,10.48999 1.91,29.51001 -24.73,60.73999 -8.17,17.15998 -7.44,33 2.14999,47.08002 11.56,16.96002 32.24001,25.12 42.12,24.28003 5.22,-0.45001 9.83,3.42999 10.28,8.65997 0.45,5.22998 -3.42999,9.83002 -8.66001,10.28003 -0.97,0.08 -1.97999,0.12 -3.00999,0.12 h 0.01 z" /><path
               id="path470"
               style="fill:#000000;fill-opacity:1;fill-rule:nonzero;stroke:none"
               d="m 209.67999,587.32001 c -24.53,0 -52.83999,-20.34998 -66.48001,-48.63001 -17.42,-36.10998 -7.64999,-76.04999 26.79001,-109.58999 3.75999,-3.66001 9.77,-3.57999 13.42999,0.17999 3.66001,3.76001 3.58,9.76999 -0.17999,13.42999 -38.63001,37.61002 -30.95,71.10001 -22.94,87.72 12.06,25 36.77,39.68 52.28,37.70001 5.21,-0.65997 9.96,3.02002 10.61999,8.21998 0.66001,5.21002 -3.02,9.96002 -8.22,10.61999 -1.75,0.21997 -3.52,0.33002 -5.31,0.33002 l 0.01,0.02 z" /><path
               id="path472"
               style="fill:#000000;fill-opacity:1;fill-rule:nonzero;stroke:none"
               d="m 215.36,470.06 c -0.83,0 -1.67999,-0.10999 -2.53,-0.34 -41.75999,-11.48999 -54.68001,-43.86001 -52.84999,-70.32001 2.17,-31.33999 23.42,-57.54998 49.44,-60.95999 5.2,-0.67999 9.97,2.98001 10.65,8.19 0.67999,5.20002 -2.98,9.97001 -8.19001,10.65 -16.94,2.22 -31.41999,21.29999 -32.94999,43.42999 -0.82001,11.79001 1.33999,40.34 38.93001,50.69 5.05999,1.39002 8.02999,6.62 6.64,11.68 -1.16001,4.22 -4.98,6.98001 -9.15,6.98001 h 0.01 z" /><path
               id="path474"
               style="fill:#000000;fill-opacity:1;fill-rule:nonzero;stroke:none"
               d="m 508.01999,846.97998 c -0.06,0 -0.10999,0 -0.17001,0 -5.25,-0.09 -9.42002,-4.41998 -9.32999,-9.66998 l 5.35998,-305.23004 c 0.09,-5.19001 4.32999,-9.33002 9.50003,-9.33002 0.06,0 0.10999,0 0.16999,0 5.25,0.09 9.41998,4.41998 9.33001,9.66998 l -5.35998,305.22998 c -0.09,5.19 -4.33002,9.33002 -9.5,9.33002 z" /><path
               id="path476"
               style="fill:#000000;fill-opacity:1;fill-rule:nonzero;stroke:none"
               d="m 283.97,494.32001 c -2.70999,0 -5.41,-1.16001 -7.29001,-3.4 C 273.31,486.90002 273.84,480.91 277.87,477.54001 289.12,468.12 296.45999,461.21002 295.88,451.37 c -0.30999,-5.24 3.68,-9.73002 8.92002,-10.04001 5.22,-0.31 9.73001,3.67999 10.04001,8.92001 1.19,20.12 -13.20999,32.17999 -24.78,41.85999 -1.78,1.48999 -3.94,2.22 -6.09,2.22 l -3e-5,-0.01 z" /><path
               id="path478"
               style="fill:#000000;fill-opacity:1;fill-rule:nonzero;stroke:none"
               d="m 530.22998,524.20001 c -6e-5,2.28479 -0.43726,4.48267 -1.31158,6.59357 -0.87439,2.1109 -2.11939,3.97418 -3.73499,5.58984 -1.61566,1.6156 -3.47894,2.8606 -5.58984,3.73493 -2.1109,0.87439 -4.30878,1.31158 -6.59357,1.31164 -2.28488,-6e-5 -4.48276,-0.43725 -6.59369,-1.31158 -2.11093,-0.87439 -3.97418,-2.11939 -5.58978,-3.73499 -1.61566,-1.61566 -2.86069,-3.47894 -3.73505,-5.58984 -0.87436,-2.1109 -1.31152,-4.30878 -1.31149,-6.59357 -3e-5,-2.28485 0.43713,-4.48279 1.31149,-6.59369 0.87436,-2.1109 2.11939,-3.97418 3.73505,-5.58984 1.6156,-1.61563 3.47885,-2.86063 5.58975,-3.73499 2.11093,-0.87432 4.30884,-1.31149 6.59372,-1.31149 2.28479,0 4.48267,0.43717 6.59357,1.31149 2.1109,0.87436 3.97418,2.11936 5.58984,3.73499 1.6156,1.61566 2.8606,3.47894 3.73499,5.58984 0.87432,2.1109 1.31152,4.30884 1.31158,6.59369 z" /><path
               id="path480"
               style="fill:#eee612;fill-opacity:1;fill-rule:nonzero;stroke:none"
               d="m 615.94,857.71002 c 0.18,0.92999 0.77002,2.92999 0.59998,3.90998 -3.04999,17.19 -3.21002,32.04998 -26.10999,35.60998 -74.38,11.54999 -139.01001,14.03003 -213.42999,0.33002 -22.91,-4.21997 -22.54001,-18.72998 -24.76001,-35.97998 -0.13,-0.96997 0.26001,-3.09998 0.64999,-3.95002 6.75,-15.01 10.69001,-30.35998 32.85001,-26.05999 71.97,13.95001 126.19,10.94 198.32001,-1.53998 3.84002,-0.65997 5.71002,0.06 7.75,-0.1 1.53998,-0.11999 0.28998,-0.02 0.29999,-0.02 15.28002,1.65003 21.21002,14.14002 23.83001,27.81 v -0.01 z" /></g><g
             transform="translate(761,630)"
             id="g482"><g
               id="g484" /><g
               id="g496"><g
                 style="opacity:0.42000002"
                 id="g494"
                 clip-path="url(#clipPath488)"><g
                   id="g492"
                   transform="matrix(0.4873468,0,0,0.4873468,-170.98676,-411.48203)"><path
                     id="path490"
                     style="fill:#000000;fill-opacity:1;fill-rule:nonzero;stroke:none"
                     d="m 615.96997,857.70001 c 0,0.98999 0.76001,2.94 0.59003,3.90998 -3.09998,17.21002 -3.22998,32.07 -26.13001,35.61999 -74.39001,11.53003 -138.97998,14.07001 -213.44,0.31 -22.92999,-4.23999 -22.44,-18.65003 -24.79001,-36 -0.13,-0.97998 0.66001,-2.88001 0.76001,-3.85999 0.45001,-4.32 2.39002,-8.21002 3.73001,-12.02002 5.19,14.57001 5.18,25.60999 24.64002,29.41999 72.91,14.27002 135.76001,11.40002 208.63,-1.10999 16.87,-2.90002 17.85999,-10.81 24.82001,-22.96002 0.10998,2.16998 1.20001,4.34003 1.20001,6.67999 l -0.0101,0.0101 z" /></g></g></g></g><g
             transform="translate(763,621)"
             id="g498"><g
               id="g500" /><g
               id="g512"><g
                 style="opacity:0.6"
                 id="g510"
                 clip-path="url(#clipPath504)"><g
                   id="g508"
                   transform="matrix(0.4873468,0,0,0.4873468,-172.98676,-402.48203)"><path
                     id="path506"
                     style="fill:#f5d80c;fill-opacity:1;fill-rule:nonzero;stroke:none"
                     d="m 620.40002,859.39001 c -0.21997,-0.95001 -0.04,-3.08001 -0.36999,-3.94 -5.96997,-15.03998 -10.42999,-31.21997 -32.17999,-27.57001 -70.65998,11.85999 -126.70002,16.84003 -197.78,2.76001 -21.88001,-4.34002 -26.17002,10.84998 -32.79999,25.81 -0.37,0.84998 -0.31,3 -0.5,3.94 -0.85001,4.15003 -0.23999,8.38001 0.03,12.28003 8.85,-11.96002 12.57999,-23.16998 31.69,-19.34997 71.59,14.29999 132.34003,9.66998 203.53998,-3.09003 16.48999,-2.96002 19.78998,6.71997 28.71002,15.96997 -0.32001,-2.07001 0.16998,-4.56 -0.34003,-6.81 z" /></g></g></g></g><g
             transform="translate(763,623)"
             id="g514"><g
               id="g516" /><g
               id="g528"><g
                 style="opacity:0.55"
                 id="g526"
                 clip-path="url(#clipPath520)"><g
                   id="g524"
                   transform="matrix(0.4873468,0,0,0.4873468,-172.98676,-404.48203)"><path
                     id="path522"
                     style="fill:#ffffff;fill-opacity:1;fill-rule:nonzero;stroke:none"
                     d="m 360.95001,877.69 c 0,0 -2.86999,-42.70001 154.52997,-31.97998 0,0 -118.14999,-13.02002 -118.91,-13.02002 -0.76001,0 -29.11002,0.57001 -29.11002,0.57001 0,0 -9.76999,21.26001 -10.14999,25.65997 -0.38001,4.39997 1.14999,18.96002 1.33999,19.90998 0.19001,0.94995 2.29999,-1.15003 2.29999,-1.15003 l 6e-5,0.0101 z" /></g></g></g></g><g
             transform="matrix(0.4873468,0,0,0.4873468,590.01324,218.51797)"
             id="g530"><path
               id="path532"
               style="fill:#000000;fill-opacity:1;fill-rule:nonzero;stroke:none"
               d="m 477.54001,916.34003 c -34.9,0 -68.07001,-3.15003 -102.25,-9.45002 -30.42999,-3.53997 -37.37,-39.96002 -29.15,-57.53002 5.9,-13.70002 13.97001,-32.46998 41.41999,-27.14002 76.29001,16.10999 132.88,7.23999 204.07,-1.82001 20.62,-0.34002 37.19001,24.28998 33.49,47.47004 -2.52002,15.34997 -5.65003,34.46002 -33.22999,38.73999 -41.78002,6.48999 -78.95001,9.72998 -114.35,9.72998 z m -115.78,-55.27002 c 1.85999,14.96997 1.45999,25.15002 16.95999,27.14001 66.63001,12.27002 129.50998,12.15998 210.24997,-0.36999 23.75,-0.34003 21.83002,-47.27997 2.82001,-48.40998 -72.5,9.73999 -129.54999,17.69001 -207.85001,1.45002 -13.04001,-3.87 -16.48001,6.82 -22.17999,20.19 z m 245.33997,0.66998 z m -245.5,-0.31 -0.04,0.1 c 0,0 0.03,-0.06 0.04,-0.1 z m 0.11999,-0.08 z m 245.46997,-1.39002 z" /><path
               id="path534"
               style="fill:#eee612;fill-opacity:1;fill-rule:nonzero;stroke:none"
               d="m 615.94,929.71002 c 0.18,0.92999 0.77002,2.92999 0.59998,3.90998 -3.04999,17.19 -3.21002,32.04998 -26.10999,35.60998 -74.38,11.54999 -139.01001,14.03003 -213.42999,0.33002 -22.91,-4.21997 -22.54001,-18.72998 -24.76001,-35.97998 -0.13,-0.96997 0.26001,-3.09998 0.64999,-3.95002 6.75,-15.01 10.69001,-30.35998 32.85001,-26.05999 71.97,13.95001 126.19,10.94 198.32001,-1.53998 3.84002,-0.65997 5.71002,0.06 7.75,-0.1 1.53998,-0.11999 0.28998,-0.02 0.29999,-0.02 15.28002,1.65003 21.21002,14.14002 23.83001,27.81 v -0.01 z" /></g><g
             transform="translate(761,665)"
             id="g536"><g
               id="g538" /><g
               id="g550"><g
                 style="opacity:0.42000002"
                 id="g548"
                 clip-path="url(#clipPath542)"><g
                   id="g546"
                   transform="matrix(0.4873468,0,0,0.4873468,-170.98676,-446.48203)"><path
                     id="path544"
                     style="fill:#000000;fill-opacity:1;fill-rule:nonzero;stroke:none"
                     d="m 615.96997,929.70001 c 0,0.98999 0.76001,2.94 0.59003,3.90998 -3.09998,17.21002 -3.22998,32.07 -26.13001,35.61999 -74.39001,11.53003 -138.97998,14.07001 -213.44,0.31 -22.92999,-4.23999 -22.44,-18.65003 -24.79001,-36 -0.13,-0.97998 0.66001,-2.88001 0.76001,-3.85999 0.45001,-4.32 2.39002,-8.21002 3.73001,-12.02002 5.19,14.57001 5.18,25.60999 24.64002,29.41999 72.91,14.27002 135.76001,11.40002 208.63,-1.10999 16.87,-2.90002 17.85999,-10.81 24.82001,-22.96002 0.10998,2.16998 1.20001,4.34003 1.20001,6.67999 l -0.0101,0.0101 z" /></g></g></g></g><g
             transform="translate(763,656)"
             id="g552"><g
               id="g554" /><g
               id="g566"><g
                 style="opacity:0.6"
                 id="g564"
                 clip-path="url(#clipPath558)"><g
                   id="g562"
                   transform="matrix(0.4873468,0,0,0.4873468,-172.98676,-437.48203)"><path
                     id="path560"
                     style="fill:#f5d80c;fill-opacity:1;fill-rule:nonzero;stroke:none"
                     d="m 620.40002,931.39001 c -0.21997,-0.95001 -0.04,-3.08001 -0.36999,-3.94 -5.96997,-15.03998 -10.42999,-31.21997 -32.17999,-27.57001 -70.65998,11.85999 -126.70002,16.84003 -197.78,2.76001 -21.88001,-4.34002 -26.17002,10.84998 -32.79999,25.81 -0.37,0.84998 -0.31,3 -0.5,3.94 -0.85001,4.15003 -0.23999,8.38001 0.03,12.28003 8.85,-11.96002 12.57999,-23.16998 31.69,-19.34997 71.59,14.29999 132.34003,9.66998 203.53998,-3.09003 16.48999,-2.96002 19.78998,6.71997 28.71002,15.96997 -0.32001,-2.07001 0.16998,-4.56 -0.34003,-6.81 z" /></g></g></g></g><g
             transform="translate(763,662)"
             id="g568"><g
               id="g570" /><g
               id="g582"><g
                 style="opacity:0.55"
                 id="g580"
                 clip-path="url(#clipPath574)"><g
                   id="g578"
                   transform="matrix(0.4873468,0,0,0.4873468,-172.98676,-443.48203)"><path
                     id="path576"
                     style="fill:#ffffff;fill-opacity:1;fill-rule:nonzero;stroke:none"
                     d="m 361.20999,955.04999 c 0,0 -2.86999,-42.70001 154.53,-31.97998 0,0 -118.14999,-13.02002 -118.91,-13.02002 -0.76001,0 -29.11002,0.57001 -29.11002,0.57001 0,0 -9.76999,21.26 -10.14999,25.65997 -0.38001,4.39996 1.14999,18.96002 1.33999,19.90997 0.19001,0.94995 2.29999,-1.15002 2.29999,-1.15002 l 3e-5,0.0101 z" /></g></g></g></g><g
             transform="matrix(0.4873468,0,0,0.4873468,590.01324,218.51797)"
             id="g584"><path
               id="path586"
               style="fill:#000000;fill-opacity:1;fill-rule:nonzero;stroke:none"
               d="m 477.54001,988.34003 c -34.9,0 -68.07001,-3.15003 -102.25,-9.45002 -30.42999,-3.53997 -37.37,-39.96002 -29.15,-57.53002 5.9,-13.70002 13.97001,-32.46998 41.41999,-27.14002 76.29001,16.10999 132.88,7.23999 204.07,-1.82001 20.62,-0.34002 37.19001,24.28998 33.49,47.47004 -2.52002,15.34997 -5.65003,34.46002 -33.22999,38.73999 -41.78002,6.48999 -78.95001,9.72998 -114.35,9.72998 z m -115.78,-55.27002 c 1.85999,14.96997 1.45999,25.15002 16.95999,27.14001 66.63001,12.27002 129.50998,12.15998 210.24997,-0.36999 23.75,-0.34003 21.83002,-47.27997 2.82001,-48.40998 -72.5,9.73999 -129.54999,17.69001 -207.85001,1.45002 -13.04001,-3.87 -16.48001,6.82 -22.17999,20.19 z m 245.33997,0.66998 z m -245.5,-0.31 -0.04,0.1 c 0,0 0.03,-0.06 0.04,-0.1 z m 0.11999,-0.08 z m 245.46997,-1.39002 z" /><path
               id="path588"
               style="fill:#eee612;fill-opacity:1;fill-rule:nonzero;stroke:none"
               d="m 615.94,1001.71 c 0.18,0.93 0.77002,2.93 0.59998,3.91 -3.04999,17.19 -3.21002,32.05 -26.10999,35.61 -74.38,11.55 -139.01001,14.03 -213.42999,0.3299 -22.91,-4.2199 -22.54001,-18.7299 -24.76001,-35.9799 -0.13,-0.97 0.26001,-3.1 0.64999,-3.9501 6.75,-15.00997 10.69001,-30.35994 32.85001,-26.05995 71.97,13.95001 126.19,10.94 198.32001,-1.53998 3.84002,-0.65997 5.71002,0.06 7.75,-0.1 1.53998,-0.11999 0.28998,-0.02 0.29999,-0.02 15.28002,1.65003 21.21002,14.14002 23.83001,27.81003 z" /></g><g
             transform="translate(761,700)"
             id="g590"><g
               id="g592" /><g
               id="g604"><g
                 style="opacity:0.42000002"
                 id="g602"
                 clip-path="url(#clipPath596)"><g
                   id="g600"
                   transform="matrix(0.4873468,0,0,0.4873468,-170.98676,-481.48203)"><path
                     id="path598"
                     style="fill:#000000;fill-opacity:1;fill-rule:nonzero;stroke:none"
                     d="m 615.96997,1001.7 c 0,0.99 0.76001,2.94 0.59003,3.91 -3.09998,17.21 -3.22998,32.0699 -26.13001,35.62 -74.39001,11.53 -138.97998,14.0699 -213.44,0.31 -22.92999,-4.2399 -22.44,-18.65 -24.79001,-36 -0.13,-0.9799 0.66001,-2.88 0.76001,-3.8599 0.45001,-4.32005 2.39002,-8.21007 3.73001,-12.02007 5.19,14.56997 5.18,25.60997 24.64002,29.41997 72.91,14.27 135.76001,11.4 208.63,-1.11 16.87,-2.9 17.85999,-10.81 24.82001,-22.95999 0.10998,2.16998 1.20001,4.34003 1.20001,6.67999 l -0.0101,0.01 z" /></g></g></g></g><g
             transform="translate(763,691)"
             id="g606"><g
               id="g608" /><g
               id="g620"><g
                 style="opacity:0.6"
                 id="g618"
                 clip-path="url(#clipPath612)"><g
                   id="g616"
                   transform="matrix(0.4873468,0,0,0.4873468,-172.98676,-472.48203)"><path
                     id="path614"
                     style="fill:#f5d80c;fill-opacity:1;fill-rule:nonzero;stroke:none"
                     d="m 620.40002,1003.39 c -0.21997,-0.95 -0.04,-3.08 -0.36999,-3.93999 -5.96997,-15.03998 -10.42999,-31.21997 -32.17999,-27.57001 -70.65998,11.85999 -126.70002,16.84003 -197.78,2.76001 -21.88001,-4.34002 -26.17002,10.84998 -32.79999,25.80999 -0.37,0.85 -0.31,3 -0.5,3.94 -0.85001,4.15 -0.23999,8.38 0.03,12.28 8.85,-11.96 12.57999,-23.16994 31.69,-19.34993 71.59,14.30003 132.34003,9.66993 203.53998,-3.09003 16.48999,-2.96002 19.78998,6.71996 28.71002,15.96996 -0.32001,-2.07 0.16998,-4.56 -0.34003,-6.81 z" /></g></g></g></g><g
             transform="translate(765,695)"
             id="g622"><g
               id="g624" /><g
               id="g636"><g
                 style="opacity:0.55"
                 id="g634"
                 clip-path="url(#clipPath628)"><g
                   id="g632"
                   transform="matrix(0.4873468,0,0,0.4873468,-174.98676,-476.48203)"><path
                     id="path630"
                     style="fill:#ffffff;fill-opacity:1;fill-rule:nonzero;stroke:none"
                     d="m 364.23001,1023.55 c 0,0 -2.86999,-42.70002 154.53,-31.97999 0,0 -118.14999,-13.02002 -118.91,-13.02002 -0.76001,0 -29.11002,0.57001 -29.11002,0.57001 0,0 -9.76999,21.26 -10.14999,25.66 -0.38001,4.3999 1.14999,18.96 1.33999,19.9099 0.19001,0.95 2.29999,-1.15 2.29999,-1.15 l 3e-5,0.01 z" /></g></g></g></g><g
             transform="matrix(0.4873468,0,0,0.4873468,590.01324,218.51797)"
             id="g638"><path
               id="path640"
               style="fill:#000000;fill-opacity:1;fill-rule:nonzero;stroke:none"
               d="m 477.54001,1060.34 c -34.9,0 -68.07001,-3.1501 -102.25,-9.45 -30.42999,-3.54 -37.37,-39.96 -29.15,-57.53001 5.9,-13.70002 13.97001,-32.46998 41.41999,-27.14002 76.29001,16.10999 132.88,7.23999 204.07,-1.82001 20.62,-0.34002 37.19001,24.28998 33.49,47.47004 -2.52002,15.35 -5.65003,34.46 -33.22999,38.74 -41.78002,6.49 -78.95001,9.73 -114.35,9.73 z m -115.78,-55.2701 c 1.85999,14.97 1.45999,25.1501 16.95999,27.1401 66.63001,12.27 129.50998,12.16 210.24997,-0.37 23.75,-0.34 21.83002,-47.28006 2.82001,-48.41001 -72.5,9.73999 -129.54999,17.69001 -207.85001,1.45001 -13.04001,-3.86999 -16.48001,6.82001 -22.17999,20.19 z m 245.33997,0.67 z m -245.5,-0.31 -0.04,0.1 c 0,0 0.03,-0.06 0.04,-0.1 z m 0.11999,-0.08 z m 245.46997,-1.39 z" /></g><g
             transform="translate(815,625)"
             id="g642"><g
               id="g644" /><g
               id="g656"><g
                 style="opacity:0.28999999"
                 id="g654"
                 clip-path="url(#clipPath648)"><g
                   id="g652"
                   transform="matrix(0.4873468,0,0,0.4873468,-224.98676,-406.48203)"><path
                     id="path650"
                     style="fill:#000000;fill-opacity:1;fill-rule:nonzero;stroke:none"
                     d="m 557.03998,838.25 c 0,0 21.83002,51.32001 -93.06,61.65997 -3.06,14.94001 114.89002,8.43 114.89002,8.43 0,0 31.02001,-34.46997 31.78997,-34.46997 0.76996,0 0,-37.78998 0,-37.78998 z" /></g></g></g></g><g
             transform="translate(815,661)"
             id="g658"><g
               id="g660" /><g
               id="g672"><g
                 style="opacity:0.28999999"
                 id="g670"
                 clip-path="url(#clipPath664)"><g
                   id="g668"
                   transform="matrix(0.4873468,0,0,0.4873468,-224.98676,-442.48203)"><path
                     id="path666"
                     style="fill:#000000;fill-opacity:1;fill-rule:nonzero;stroke:none"
                     d="m 556.27002,911.27002 c 0,0 21.83002,51.32001 -93.06,61.65997 -3.06,14.94001 114.89002,8.43 114.89002,8.43 0,0 31.02002,-34.46998 31.78997,-34.46998 0.76996,0 0,-37.78997 0,-37.78997 z" /></g></g></g></g><g
             transform="matrix(0.4873468,0,0,0.4873468,590.01324,218.51797)"
             id="g674"><path
               id="path676"
               style="fill:#f5d80c;fill-opacity:1;fill-rule:nonzero;stroke:none"
               d="m 117.62,786.37 c -2.99,0 -5.94,-1.40998 -7.78,-4.03998 -3.01,-4.28998 -1.98,-10.21997 2.32,-13.22998 l 77.17,-54.15998 c 4.3,-3.02002 10.22,-1.97998 13.23,2.32001 3.00999,4.28998 1.97999,10.21997 -2.32001,13.22998 l -77.17,54.15997 c -1.66,1.16999 -3.55999,1.72998 -5.44999,1.72998 z" /><path
               id="path678"
               style="fill:#f5d80c;fill-opacity:1;fill-rule:nonzero;stroke:none"
               d="m 51.75,683.03998 c -3.880001,0 -7.52,-2.39002 -8.919998,-6.23999 -1.799999,-4.92999 0.740002,-10.38001 5.66,-12.17999 L 137.05,632.27002 c 4.93001,-1.79999 10.38001,0.73999 12.18001,5.65997 1.8,4.93 -0.74001,10.38001 -5.66,12.18 l -88.56,32.34997 c -1.080002,0.39002 -2.180001,0.58002 -3.259999,0.58002 z" /><path
               id="path680"
               style="fill:#f5d80c;fill-opacity:1;fill-rule:nonzero;stroke:none"
               d="m 14.86,566.17999 c -4.8700002,0 -9.0100006,-3.71997 -9.4500002,-8.65997 -0.46,-5.22998 3.3999997,-9.84003 8.6200002,-10.29999 l 93.91,-8.32001 c 5.22,-0.46997 9.84,3.40003 10.30001,8.62 0.46,5.22998 -3.40001,9.84003 -8.62001,10.29999 l -93.910001,8.32 c -0.29,0.03 -0.57,0.04 -0.85,0.04 h 10e-7 z" /><path
               id="path682"
               style="fill:#f5d80c;fill-opacity:1;fill-rule:nonzero;stroke:none"
               d="m 102.38,460.03 c -0.54,0 -1.1,-0.05 -1.65,-0.14002 L 7.859993,443.62 c -5.1700001,-0.91001 -8.6199999,-5.82999 -7.71999981,-11 0.90000011,-5.17002 5.82999991,-8.63001 11.00000081,-7.72001 L 104.01,441.16998 c 5.16999,0.91001 8.62,5.82999 7.72,11 -0.81,4.60999 -4.82,7.85999 -9.35,7.85999 z" /><path
               id="path684"
               style="fill:#f5d80c;fill-opacity:1;fill-rule:nonzero;stroke:none"
               d="m 121.48,363.87 c -1.33999,0 -2.69999,-0.29001 -4,-0.89002 l -85.489995,-39.75 c -4.76,-2.20999 -6.819999,-7.85998 -4.61,-12.61999 2.209999,-4.76001 7.86,-6.82001 12.619999,-4.60999 l 85.490006,39.75 c 4.75999,2.20999 6.82,7.85999 4.61,12.62 -1.61001,3.45999 -5.04,5.5 -8.62001,5.5 z" /><path
               id="path686"
               style="fill:#f5d80c;fill-opacity:1;fill-rule:nonzero;stroke:none"
               d="m 164.84,275.94 c -2.15,0 -4.31,-0.73001 -6.09,-2.22 L 86.459999,213.2 c -4.019997,-3.37 -4.550003,-9.36 -1.190002,-13.38001 3.370002,-4.02 9.36,-4.55 13.379997,-1.19 l 72.290006,60.52 c 4.02001,3.37 4.55001,9.35999 1.19,13.38001 -1.88,2.23999 -4.57,3.39999 -7.28999,3.39999 l -1e-5,0.01 z" /><path
               id="path688"
               style="fill:#f5d80c;fill-opacity:1;fill-rule:nonzero;stroke:none"
               d="m 229.49001,202.23 c -2.99001,0 -5.94001,-1.41001 -7.78,-4.04 L 167.55,121.02 c -3.00999,-4.29 -1.97999,-10.22 2.32001,-13.22999 4.28999,-3.01 10.22,-1.98 13.23,2.32 l 54.16,77.16999 c 3.00999,4.28999 1.98,10.22 -2.32001,13.22999 -1.66,1.17 -3.56,1.73 -5.44999,1.73 v -0.01 z" /><path
               id="path690"
               style="fill:#f5d80c;fill-opacity:1;fill-rule:nonzero;stroke:none"
               d="m 310.98999,147.75 c -3.88,0 -7.51999,-2.39 -8.92001,-6.24001 L 269.71997,52.949997 c -1.79999,-4.93 0.73999,-10.380001 5.66,-12.18 4.93,-1.8 10.38001,0.740001 12.18,5.659999 l 32.35,88.559994 c 1.79999,4.92999 -0.73999,10.38 -5.66,12.17999 -1.07999,0.39 -2.17999,0.58 -3.26001,0.58 z" /><path
               id="path692"
               style="fill:#f5d80c;fill-opacity:1;fill-rule:nonzero;stroke:none"
               d="m 425.10999,112.03 c -4.43,0 -8.39002,-3.11 -9.29999,-7.61 L 397.06,12.019997 c -1.04001,-5.1400002 2.28,-10.1600002 7.42001,-11.20000017 5.14999,-1.03999996 10.16,2.27999997 11.20001,7.42000007 l 18.75,92.4000031 c 1.04001,5.14 -2.28,10.16 -7.42001,11.2 -0.64001,0.12999 -1.26999,0.19 -1.89999,0.19 z" /><path
               id="path694"
               style="fill:#f5d80c;fill-opacity:1;fill-rule:nonzero;stroke:none"
               d="m 838.60999,786.37 c -1.89002,0 -3.78998,-0.56 -5.45002,-1.72999 l -77.16998,-54.15997 c -4.28998,-3.01001 -5.33002,-8.94 -2.32001,-13.22998 3.01001,-4.28998 8.94001,-5.33002 13.22998,-2.32001 l 77.16999,54.15998 c 4.28997,3.01001 5.33001,8.94 2.32,13.22998 -1.84997,2.63 -4.78997,4.03998 -7.78003,4.03998 l 7e-5,0.01 z" /><path
               id="path696"
               style="fill:#f5d80c;fill-opacity:1;fill-rule:nonzero;stroke:none"
               d="m 904.47998,683.03998 c -1.08002,0 -2.17999,-0.19 -3.26001,-0.58002 l -88.56,-32.34997 c -4.92999,-1.79999 -7.46002,-7.25 -5.65997,-12.18 1.79999,-4.92999 7.25,-7.46002 12.17999,-5.65997 l 88.56,32.34998 c 4.92999,1.79998 7.46002,7.25 5.65997,12.17999 -1.40997,3.84997 -5.04998,6.23999 -8.91998,6.23999 z" /><path
               id="path698"
               style="fill:#f5d80c;fill-opacity:1;fill-rule:nonzero;stroke:none"
               d="m 941.37,566.17999 c -0.28003,0 -0.56,-0.01 -0.84998,-0.04 l -93.91003,-8.32 c -5.22999,-0.46002 -9.09003,-5.08002 -8.62,-10.29999 0.46002,-5.22998 5.07001,-9.09003 10.29999,-8.62 l 93.90997,8.32001 c 5.22998,0.46002 9.09003,5.08002 8.62,10.29999 -0.44001,4.94 -4.58002,8.65997 -9.45002,8.65997 h 7e-5 z" /><path
               id="path700"
               style="fill:#f5d80c;fill-opacity:1;fill-rule:nonzero;stroke:none"
               d="m 853.84998,460.03 c -4.53003,0 -8.53998,-3.25 -9.34998,-7.85999 -0.90997,-5.17001 2.54999,-10.08999 7.71997,-11 l 92.87,-16.26999 c 5.15997,-0.89999 10.09002,2.54999 11,7.72001 0.90997,5.17001 -2.54999,10.08999 -7.71997,11 l -92.87,16.26998 c -0.54999,0.10001 -1.10999,0.14002 -1.65002,0.14002 z" /><path
               id="path702"
               style="fill:#f5d80c;fill-opacity:1;fill-rule:nonzero;stroke:none"
               d="m 834.75,363.87 c -3.58002,0 -7.01001,-2.04001 -8.62,-5.5 -2.21002,-4.76001 -0.15002,-10.41001 4.60999,-12.62 L 916.22998,306 c 4.76001,-2.20999 10.40997,-0.14999 12.62,4.60999 2.21002,4.76001 0.15002,10.41 -4.60999,12.61999 l -85.48999,39.75 c -1.29999,0.60001 -2.65997,0.89002 -4,0.89002 z" /><path
               id="path704"
               style="fill:#f5d80c;fill-opacity:1;fill-rule:nonzero;stroke:none"
               d="m 791.39001,275.94 c -2.71002,0 -5.40997,-1.16 -7.28997,-3.39999 -3.37,-4.01999 -2.84003,-10.01001 1.19,-13.38001 l 72.28998,-60.52 c 4.02002,-3.37 10.01001,-2.84 13.38,1.19 3.37,4.02001 2.84003,10.01 -1.19,13.38001 l -72.28998,60.52 c -1.78003,1.48999 -3.94,2.22 -6.09003,2.22 v -0.01 z" /><path
               id="path706"
               style="fill:#f5d80c;fill-opacity:1;fill-rule:nonzero;stroke:none"
               d="m 726.73999,202.23 c -1.89001,0 -3.78998,-0.56 -5.45001,-1.73 -4.28998,-3.00999 -5.33002,-8.94 -2.32001,-13.23 l 54.15997,-77.16999 c 3.01001,-4.29 8.94001,-5.33001 13.22998,-2.32 4.28998,3.01 5.33002,8.94 2.32001,13.23 l -54.15997,77.17 c -1.84998,2.63 -4.78998,4.03999 -7.78003,4.03999 z" /><path
               id="path708"
               style="fill:#f5d80c;fill-opacity:1;fill-rule:nonzero;stroke:none"
               d="m 645.23999,147.75 c -1.08002,0 -2.17999,-0.19 -3.26001,-0.58 -4.92999,-1.80001 -7.46002,-7.25 -5.65997,-12.18001 l 32.34997,-88.559997 c 1.79999,-4.930001 7.25,-7.470002 12.18,-5.66 4.92999,1.799999 7.46002,7.25 5.65997,12.18 L 654.15997,141.50999 C 652.75,145.36 649.10999,147.75 645.23999,147.75 Z" /><path
               id="path710"
               style="fill:#f5d80c;fill-opacity:1;fill-rule:nonzero;stroke:none"
               d="m 529.34998,112.66 c -0.35999,0 -0.72998,-0.02 -1.09998,-0.06 -5.21002,-0.6 -8.95001,-5.31 -8.34998,-10.53 L 530.70001,8.4100037 c 0.59998,-5.2100001 5.32001,-8.94999985 10.53003,-8.35000042 5.21002,0.60000002 8.95001,5.30999992 8.34998,10.52999972 l -10.79999,93.660007 c -0.56,4.84 -4.66998,8.40999 -9.42999,8.40999 z" /></g></g></g><g
         id="g712"><g
           clip-path="url(#clipPath718)"
           id="g714"><g
             transform="translate(382,1285)"
             id="g720"><g
               id="g722" /><g
               id="g736"><g
                 id="g734"
                 clip-path="url(#clipPath726)"><g
                   id="g732"
                   transform="matrix(3.467046,0,0,3.467046,-5.9537659,-33.89978)"><text
                     id="text730"
                     style="font-variant:normal;font-weight:normal;font-size:54.43000031px;font-family:Agrandir;-inkscape-font-specification:Agrandir-Regular;writing-mode:lr-tb;fill:#ffffff;fill-opacity:1;fill-rule:nonzero;stroke:none"
                     transform="translate(2,51)"><tspan
                       id="tspan728"
                       y="0"
                       x="0 44.190582 76.789307 112.43565 136.38127 168.92557 179.429 209.52431 236.40872">GoBrainzy</tspan></text>
</g></g></g></g></g></g></g><path
       id="path738"
       style="fill:#000000;fill-opacity:0;fill-rule:nonzero;stroke:none"
       d="M 77.06206,98.29086 H 297.93795 V 345.53999 H 77.06206 Z" /><path
       id="path740"
       style="fill:#000000;fill-opacity:0;fill-rule:nonzero;stroke:none"
       d="M 141.60316,201.5873 H 253.4563 V 330.63962 H 141.60316 Z" /></g></svg>